<?xml version="1.0" encoding="UTF-8"?>
<svg version="1.1" xmlns="http://www.w3.org/2000/svg" width="500" height="500">
<path d="M0 0 C2.88944344 0.19544681 3.87473161 0.59055739 5.83203125 2.76171875 C7.45641185 5.42330279 8.83400824 8.12836615 10.1875 10.9375 C10.73792969 11.99195312 11.28835938 13.04640625 11.85546875 14.1328125 C16.36431521 22.85062966 16.36431521 22.85062966 17.1875 26.9375 C17.8475 26.9375 18.5075 26.9375 19.1875 26.9375 C20.6481285 29.58488916 21.1875 30.83198334 21.1875 33.9375 C21.8475 33.9375 22.5075 33.9375 23.1875 33.9375 C23.5278125 34.64132813 23.868125 35.34515625 24.21875 36.0703125 C27.90340525 43.57681761 31.92897701 50.84039212 36.11669922 58.07373047 C37.96058473 61.28308341 39.75746896 64.51869333 41.5625 67.75 C46.30680378 76.22286675 51.23574705 84.58464742 56.1875 92.9375 C57.1775 92.6075 58.1675 92.2775 59.1875 91.9375 C59.1875 91.2775 59.1875 90.6175 59.1875 89.9375 C60.84520921 88.60130379 62.56602016 87.34287861 64.3125 86.125 C67.56381124 83.82774148 70.74645896 81.55155442 73.75 78.9375 C76.1875 76.9375 76.1875 76.9375 78.1875 76.9375 C78.1875 76.2775 78.1875 75.6175 78.1875 74.9375 C80.00774792 73.39658186 81.83233505 71.97383532 83.75 70.5625 C84.93613392 69.67352455 86.12097524 68.78282247 87.3046875 67.890625 C87.93342773 67.41689453 88.56216797 66.94316406 89.20996094 66.45507812 C93.32566725 63.29665461 97.33135677 59.99514115 101.33618164 56.69775391 C105.96888855 52.9375 105.96888855 52.9375 108.1875 52.9375 C108.1875 52.2775 108.1875 51.6175 108.1875 50.9375 C110.13289098 49.29278769 112.08047327 47.76260588 114.125 46.25 C115.31799906 45.35325122 116.51070587 44.45611352 117.703125 43.55859375 C118.29416016 43.11628418 118.88519531 42.67397461 119.49414062 42.21826172 C122.53949058 39.91493043 125.50662434 37.51171157 128.48046875 35.1171875 C130.1875 33.9375 130.1875 33.9375 132.1875 33.9375 C132.1875 33.2775 132.1875 32.6175 132.1875 31.9375 C134.8275 31.9375 137.4675 31.9375 140.1875 31.9375 C142.95128407 35.8393128 141.83910335 39.50792485 141.1875 43.9375 C141.02064697 45.19941162 140.85379395 46.46132324 140.68188477 47.76147461 C137.03843505 74.74776379 132.98791712 101.66721548 128.80224609 128.57373047 C128.47909249 130.65160378 128.15596091 132.7294805 127.83288193 134.80736542 C127.62215992 136.16252629 127.41135781 137.5176747 127.20047379 138.87281036 C125.95747241 146.86602032 124.74500762 154.86191365 123.609375 162.87109375 C117.74490539 204.11822351 117.74490539 204.11822351 104.1875 215.9375 C103.07375 216.9275 103.07375 216.9275 101.9375 217.9375 C92.195606 225.02251382 82.67325682 228.0529838 70.59780884 228.07121277 C69.31382706 228.07547775 68.02984528 228.07974274 66.70695496 228.08413696 C65.30154416 228.08378752 63.89613338 228.08332603 62.49072266 228.08276367 C60.99692196 228.08575888 59.50312204 228.08916225 58.00932312 228.09294128 C53.9658697 228.10174796 49.92243747 228.10411797 45.87897539 228.10475707 C43.34930102 228.10546939 40.81963199 228.10760713 38.28995895 228.11025429 C29.45502126 228.1194962 20.62009862 228.12359056 11.78515625 228.12280273 C3.56509507 228.12220203 -4.65490047 228.13275537 -12.87494504 228.1485464 C-19.9460844 228.16164364 -27.01720236 228.16698572 -34.08835375 228.16634732 C-38.30556272 228.16609301 -42.5227133 228.16890751 -46.73991013 228.17952538 C-50.70769786 228.18924336 -54.67537181 228.1892603 -58.64316368 228.18200874 C-60.09391764 228.18096754 -61.54467883 228.18329804 -62.99542046 228.1893692 C-77.83896485 228.2474327 -93.14513041 226.02041199 -104.8125 215.9375 C-104.8125 215.2775 -104.8125 214.6175 -104.8125 213.9375 C-105.4725 213.9375 -106.1325 213.9375 -106.8125 213.9375 C-106.8125 213.2775 -106.8125 212.6175 -106.8125 211.9375 C-107.4725 211.9375 -108.1325 211.9375 -108.8125 211.9375 C-109.7397985 210.33945558 -110.65359706 208.73357823 -111.5625 207.125 C-112.07296875 206.23167969 -112.5834375 205.33835937 -113.109375 204.41796875 C-118.02001359 194.38269585 -120.04734092 184.25127461 -121.75 173.3125 C-122.00627274 171.7191896 -122.26336778 170.12601126 -122.52124023 168.53295898 C-124.43093161 156.66369504 -126.21713096 144.7749246 -127.98803711 132.88427734 C-129.48525757 122.87007655 -131.17525388 112.8961065 -132.93115234 102.92407227 C-135.27111519 89.52137726 -137.27096764 76.06900894 -139.26025391 62.6105957 C-139.79827685 59.03210091 -140.36923206 55.45988296 -140.94140625 51.88671875 C-141.59403634 47.65194695 -142.08593725 43.54487588 -142.0625 39.25 C-142.06765625 38.27675781 -142.0728125 37.30351562 -142.078125 36.30078125 C-141.8125 33.9375 -141.8125 33.9375 -139.8125 31.9375 C-134.5836984 31.24131395 -132.0529549 32.6785086 -127.9375 35.8125 C-126.97070312 36.53179687 -126.00390625 37.25109375 -125.0078125 37.9921875 C-123.92113281 38.95511719 -123.92113281 38.95511719 -122.8125 39.9375 C-122.8125 40.5975 -122.8125 41.2575 -122.8125 41.9375 C-122.09449219 42.18371094 -121.37648437 42.42992187 -120.63671875 42.68359375 C-117.49455308 44.07866316 -115.26154058 45.80221807 -112.625 48 C-109.39967013 50.74670164 -109.39967013 50.74670164 -105.8125 52.9375 C-105.8125 53.5975 -105.8125 54.2575 -105.8125 54.9375 C-105.296875 55.164375 -104.78125 55.39125 -104.25 55.625 C-100.91702995 57.41967618 -97.66546329 59.43715015 -94.8125 61.9375 C-94.8125 62.5975 -94.8125 63.2575 -94.8125 63.9375 C-94.09449219 64.18371094 -93.37648437 64.42992187 -92.63671875 64.68359375 C-89.49455308 66.07866316 -87.26154058 67.80221807 -84.625 70 C-81.39967013 72.74670164 -81.39967013 72.74670164 -77.8125 74.9375 C-77.8125 75.5975 -77.8125 76.2575 -77.8125 76.9375 C-77.25046875 77.19015625 -76.6884375 77.4428125 -76.109375 77.703125 C-73.48454804 79.11374629 -71.36460708 80.79595979 -69.0625 82.6875 C-64.73645156 86.23206872 -60.30080047 89.60277395 -55.8125 92.9375 C-55.21824219 91.85855469 -54.62398438 90.77960938 -54.01171875 89.66796875 C-48.88814754 80.39331254 -43.68023672 71.17748347 -38.30541992 62.0456543 C-37.86302979 61.28937744 -37.42063965 60.53310059 -36.96484375 59.75390625 C-36.3769104 58.75532593 -36.3769104 58.75532593 -35.77709961 57.73657227 C-34.67104344 55.79577235 -34.67104344 55.79577235 -33.8125 52.9375 C-33.1525 52.9375 -32.4925 52.9375 -31.8125 52.9375 C-31.68576904 52.34976807 -31.55903809 51.76203613 -31.4284668 51.15649414 C-30.44124916 47.60008468 -28.46242609 44.54954815 -26.625 41.375 C-25.79761632 39.92610133 -24.97079404 38.47688193 -24.14453125 37.02734375 C-23.74186035 36.32335449 -23.33918945 35.61936523 -22.92431641 34.89404297 C-21.52160351 32.42558862 -20.16215353 29.93530949 -18.8125 27.4375 C-16.2906357 22.78935796 -13.7157615 18.17247013 -11.125 13.5625 C-10.74408203 12.88380859 -10.36316406 12.20511719 -9.97070312 11.50585938 C-9.24914837 10.22436796 -8.52320102 8.94533684 -7.79223633 7.66918945 C-6.92486086 6.13609846 -6.09974549 4.57926627 -5.28125 3.01953125 C-3.8125 0.9375 -3.8125 0.9375 0 0 Z " fill="#1E79D7" transform="translate(249.8125,109.0625)"/>
<path d="M0 0 C4.02517725 0.45586345 5.91303318 1.80216754 9.1171875 4.2421875 C10.08398438 4.96148437 11.05078125 5.68078125 12.046875 6.421875 C12.77132812 7.06382812 13.49578125 7.70578125 14.2421875 8.3671875 C14.2421875 9.0271875 14.2421875 9.6871875 14.2421875 10.3671875 C14.96019531 10.61339844 15.67820313 10.85960937 16.41796875 11.11328125 C19.56013442 12.50835066 21.79314692 14.23190557 24.4296875 16.4296875 C27.65501737 19.17638914 27.65501737 19.17638914 31.2421875 21.3671875 C31.2421875 22.0271875 31.2421875 22.6871875 31.2421875 23.3671875 C31.7578125 23.5940625 32.2734375 23.8209375 32.8046875 24.0546875 C36.13765755 25.84936368 39.38922421 27.86683765 42.2421875 30.3671875 C42.2421875 31.0271875 42.2421875 31.6871875 42.2421875 32.3671875 C42.96019531 32.61339844 43.67820313 32.85960937 44.41796875 33.11328125 C47.56013442 34.50835066 49.79314692 36.23190557 52.4296875 38.4296875 C55.65501737 41.17638914 55.65501737 41.17638914 59.2421875 43.3671875 C59.2421875 44.0271875 59.2421875 44.6871875 59.2421875 45.3671875 C60.08716797 45.74617188 60.08716797 45.74617188 60.94921875 46.1328125 C63.56210826 47.5394106 65.64766337 49.22101286 67.9296875 51.1171875 C71.988341 54.44009698 76.13691783 57.33303678 80.625 60.04296875 C81.15867187 60.47996094 81.69234375 60.91695312 82.2421875 61.3671875 C82.2421875 62.3571875 82.2421875 63.3471875 82.2421875 64.3671875 C82.78488281 64.60050781 83.32757813 64.83382812 83.88671875 65.07421875 C86.90601567 66.73157742 89.3103036 68.8187951 91.9296875 71.0546875 C95.48293436 74.06459807 99.04428993 77.03461148 102.7421875 79.8671875 C107.34531102 83.40485024 111.78121168 87.13032639 116.2265625 90.86328125 C119.88934627 93.90453047 123.62211254 96.8494896 127.37890625 99.7734375 C129.2421875 101.3671875 129.2421875 101.3671875 130.2421875 103.3671875 C130.4296875 105.8671875 130.4296875 105.8671875 130.2421875 108.3671875 C129.5821875 109.0271875 128.9221875 109.6871875 128.2421875 110.3671875 C127.89876301 111.69795739 127.56598876 113.03150729 127.2421875 114.3671875 C126.5821875 115.3571875 125.9221875 116.3471875 125.2421875 117.3671875 C124.5821875 117.0371875 123.9221875 116.7071875 123.2421875 116.3671875 C123.2421875 117.0271875 123.2421875 117.6871875 123.2421875 118.3671875 C120.28031478 120.5392275 117.73532759 122.20280747 114.2421875 123.3671875 C113.9121875 124.0271875 113.5821875 124.6871875 113.2421875 125.3671875 C112.9121875 126.0271875 112.5821875 126.6871875 112.2421875 127.3671875 C110.7571875 127.8621875 110.7571875 127.8621875 109.2421875 128.3671875 C108.9121875 129.0271875 108.5821875 129.6871875 108.2421875 130.3671875 C106.57552083 130.3671875 104.90885417 130.3671875 103.2421875 130.3671875 C102.9121875 132.0171875 102.5821875 133.6671875 102.2421875 135.3671875 C100.2621875 134.3771875 100.2621875 134.3771875 98.2421875 133.3671875 C98.2421875 135.3471875 98.2421875 137.3271875 98.2421875 139.3671875 C97.4584375 139.4909375 96.6746875 139.6146875 95.8671875 139.7421875 C93.10160928 140.15836743 93.10160928 140.15836743 91.2421875 142.3671875 C90.5821875 142.3671875 89.9221875 142.3671875 89.2421875 142.3671875 C89.0153125 143.1096875 88.7884375 143.8521875 88.5546875 144.6171875 C86.94921577 147.98103302 85.24097942 149.16807342 82.2421875 151.3671875 C81.13490771 152.36373931 80.03094625 153.36398603 78.9296875 154.3671875 C74.17141224 158.46055093 69.60403215 161.3671875 63.2421875 161.3671875 C62.9121875 162.6871875 62.5821875 164.0071875 62.2421875 165.3671875 C60.9221875 165.3671875 59.6021875 165.3671875 58.2421875 165.3671875 C58.1390625 165.9446875 58.0359375 166.5221875 57.9296875 167.1171875 C57.08287627 169.88856972 56.376319 171.37533144 54.2421875 173.3671875 C50.5546875 173.6171875 50.5546875 173.6171875 47.2421875 173.3671875 C47.1390625 173.9859375 47.0359375 174.6046875 46.9296875 175.2421875 C46.2421875 177.3671875 46.2421875 177.3671875 43.2421875 179.3671875 C43.2421875 180.0271875 43.2421875 180.6871875 43.2421875 181.3671875 C42.2521875 182.0271875 41.2621875 182.6871875 40.2421875 183.3671875 C41.2321875 184.3571875 42.2221875 185.3471875 43.2421875 186.3671875 C42.9121875 187.0271875 42.5821875 187.6871875 42.2421875 188.3671875 C43.8921875 189.0271875 45.5421875 189.6871875 47.2421875 190.3671875 C47.2421875 191.0271875 47.2421875 191.6871875 47.2421875 192.3671875 C41.58040968 190.9154496 36.74758866 188.05160445 32.2421875 184.3671875 C32.2421875 183.7071875 32.2421875 183.0471875 32.2421875 182.3671875 C31.5821875 182.3671875 30.9221875 182.3671875 30.2421875 182.3671875 C30.2421875 181.7071875 30.2421875 181.0471875 30.2421875 180.3671875 C29.5821875 180.3671875 28.9221875 180.3671875 28.2421875 180.3671875 C27.314889 178.76914308 26.40109044 177.16326573 25.4921875 175.5546875 C24.98171875 174.66136719 24.47125 173.76804687 23.9453125 172.84765625 C19.03467391 162.81238335 17.00734658 152.68096211 15.3046875 141.7421875 C15.04841476 140.1488771 14.79131972 138.55569876 14.53344727 136.96264648 C12.62375589 125.09338254 10.83755654 113.2046121 9.06665039 101.31396484 C7.56942993 91.29976405 5.87943362 81.325794 4.12353516 71.35375977 C1.78357231 57.95106476 -0.21628014 44.49869644 -2.20556641 31.0402832 C-2.74358935 27.46178841 -3.31454456 23.88957046 -3.88671875 20.31640625 C-4.53934884 16.08163445 -5.03124975 11.97456338 -5.0078125 7.6796875 C-5.01296875 6.70644531 -5.018125 5.73320312 -5.0234375 4.73046875 C-4.62048085 1.14533972 -3.50245654 0.46633274 0 0 Z " fill="#20BBC7" transform="translate(112.7578125,140.6328125)"/>
<path d="M0 0 C2.88944344 0.19544681 3.87473161 0.59055739 5.83203125 2.76171875 C7.45641185 5.42330279 8.83400824 8.12836615 10.1875 10.9375 C11.01314453 12.51917969 11.01314453 12.51917969 11.85546875 14.1328125 C16.36431521 22.85062966 16.36431521 22.85062966 17.1875 26.9375 C17.8475 26.9375 18.5075 26.9375 19.1875 26.9375 C20.6481285 29.58488916 21.1875 30.83198334 21.1875 33.9375 C21.8475 33.9375 22.5075 33.9375 23.1875 33.9375 C23.5278125 34.64132813 23.868125 35.34515625 24.21875 36.0703125 C27.90340525 43.57681761 31.92897701 50.84039212 36.11669922 58.07373047 C37.96058473 61.28308341 39.75746896 64.51869333 41.5625 67.75 C46.30680378 76.22286675 51.23574705 84.58464742 56.1875 92.9375 C57.1775 92.6075 58.1675 92.2775 59.1875 91.9375 C59.1875 91.2775 59.1875 90.6175 59.1875 89.9375 C59.8475 89.9375 60.5075 89.9375 61.1875 89.9375 C60.8575 92.2475 60.5275 94.5575 60.1875 96.9375 C58.7025 96.4425 58.7025 96.4425 57.1875 95.9375 C55.04494207 96.32682856 55.04494207 96.32682856 53.1875 96.9375 C52.8575 96.2775 52.5275 95.6175 52.1875 94.9375 C49.13479537 94.77938612 49.13479537 94.77938612 46.1875 95.9375 C45.5275 95.9375 44.8675 95.9375 44.1875 95.9375 C43.50042445 98.42814888 43.1875 100.31636292 43.1875 102.9375 C42.1975 102.9375 41.2075 102.9375 40.1875 102.9375 C39.6925 104.4225 39.6925 104.4225 39.1875 105.9375 C37.5375 106.2675 35.8875 106.5975 34.1875 106.9375 C34.1875 107.5975 34.1875 108.2575 34.1875 108.9375 C33.5275 108.9375 32.8675 108.9375 32.1875 108.9375 C32.1875 109.5975 32.1875 110.2575 32.1875 110.9375 C31.5275 110.9375 30.8675 110.9375 30.1875 110.9375 C29.6925 112.4225 29.6925 112.4225 29.1875 113.9375 C26.22965769 115.16143475 24.19022755 114.90266243 21.1875 113.9375 C22.1775 115.5875 23.1675 117.2375 24.1875 118.9375 C19.75673077 122.01442308 19.75673077 122.01442308 16.875 121.625 C16.318125 121.398125 15.76125 121.17125 15.1875 120.9375 C14.8575 122.5875 14.5275 124.2375 14.1875 125.9375 C12.8675 125.9375 11.5475 125.9375 10.1875 125.9375 C9.8575 125.2775 9.5275 124.6175 9.1875 123.9375 C8.1975 124.4325 8.1975 124.4325 7.1875 124.9375 C7.5175 126.9175 7.8475 128.8975 8.1875 130.9375 C4.30961147 132.82104586 2.32626693 132.94695535 -1.8125 131.9375 C-2.864375 131.958125 -3.91625 131.97875 -5 132 C-7.8125 131.9375 -7.8125 131.9375 -9.8125 129.9375 C-10.44148193 129.78539062 -11.07046387 129.63328125 -11.71850586 129.4765625 C-14.15450241 128.84945741 -15.39065328 127.91501783 -17.31640625 126.3125 C-17.96915527 125.77520264 -18.6219043 125.23790527 -19.29443359 124.68432617 C-19.98102051 124.10787354 -20.66760742 123.5314209 -21.375 122.9375 C-22.08736816 122.34880127 -22.79973633 121.76010254 -23.53369141 121.15356445 C-24.96790002 119.96787655 -26.3999012 118.77951304 -27.82958984 117.58837891 C-30.43625209 115.41819298 -33.06070872 113.27077657 -35.6875 111.125 C-36.54214844 110.42503906 -37.39679688 109.72507812 -38.27734375 109.00390625 C-45.45103156 102.93746701 -45.45103156 102.93746701 -53.09765625 97.5234375 C-54.8125 95.9375 -54.8125 95.9375 -55.30078125 93.6953125 C-54.63676284 89.9449365 -52.92537689 87.03766701 -51 83.8125 C-50.40735352 82.78926636 -50.40735352 82.78926636 -49.80273438 81.74536133 C-48.48257762 79.47013768 -47.14761145 77.20397626 -45.8125 74.9375 C-44.30313949 72.35165032 -42.79741696 69.76373602 -41.29418945 67.17431641 C-40.31871345 65.49596406 -39.33947719 63.81979068 -38.35620117 62.14599609 C-37.68488159 60.99671631 -37.68488159 60.99671631 -37 59.82421875 C-36.60167969 59.14576904 -36.20335937 58.46731934 -35.79296875 57.76831055 C-34.67313917 55.80125945 -34.67313917 55.80125945 -33.8125 52.9375 C-33.1525 52.9375 -32.4925 52.9375 -31.8125 52.9375 C-31.68576904 52.34976807 -31.55903809 51.76203613 -31.4284668 51.15649414 C-30.44124916 47.60008468 -28.46242609 44.54954815 -26.625 41.375 C-25.79761632 39.92610133 -24.97079404 38.47688193 -24.14453125 37.02734375 C-23.74186035 36.32335449 -23.33918945 35.61936523 -22.92431641 34.89404297 C-21.52160351 32.42558862 -20.16215353 29.93530949 -18.8125 27.4375 C-16.2906357 22.78935796 -13.7157615 18.17247013 -11.125 13.5625 C-10.74408203 12.88380859 -10.36316406 12.20511719 -9.97070312 11.50585938 C-9.24914837 10.22436796 -8.52320102 8.94533684 -7.79223633 7.66918945 C-6.92486086 6.13609846 -6.09974549 4.57926627 -5.28125 3.01953125 C-3.8125 0.9375 -3.8125 0.9375 0 0 Z " fill="#5467DB" transform="translate(249.8125,109.0625)"/>
<path d="M0 0 C-0.25682475 11.8606338 -4.29432835 22.87677554 -12 32 C-22.30965072 41.56700639 -34.62959745 46.11263876 -48.58969116 46.13371277 C-49.87367294 46.13797775 -51.15765472 46.14224274 -52.48054504 46.14663696 C-53.88595584 46.14628752 -55.29136662 46.14582603 -56.69677734 46.14526367 C-58.19057804 46.14825888 -59.68437796 46.15166225 -61.17817688 46.15544128 C-65.2216303 46.16424796 -69.26506253 46.16661797 -73.30852461 46.16725707 C-75.83819898 46.16796939 -78.36786801 46.17010713 -80.89754105 46.17275429 C-89.73247874 46.1819962 -98.56740138 46.18609056 -107.40234375 46.18530273 C-115.62240493 46.18470203 -123.84240047 46.19525537 -132.06244504 46.2110464 C-139.1335844 46.22414364 -146.20470236 46.22948572 -153.27585375 46.22884732 C-157.49306272 46.22859301 -161.7102133 46.23140751 -165.92741013 46.24202538 C-169.89519786 46.25174336 -173.86287181 46.2517603 -177.83066368 46.24450874 C-179.28141764 46.24346754 -180.73217883 46.24579804 -182.18292046 46.2518692 C-204.31448345 46.33844125 -204.31448345 46.33844125 -210.6875 40.4375 C-211.120625 39.963125 -211.55375 39.48875 -212 39 C-212.66 38.67 -213.32 38.34 -214 38 C-215.57548683 35.37418862 -216 34.12900213 -216 31 C-203.30097474 27.76028683 -190.5910735 25.5365582 -177.62890625 23.64453125 C-175.56689971 23.3386623 -173.50495568 23.03237174 -171.44306946 22.72569275 C-165.95186571 21.91166087 -160.45913345 21.10845725 -154.9658432 20.30863953 C-151.54829789 19.81042962 -148.13119053 19.30930673 -144.71417236 18.80749512 C-111.82706299 13.98335475 -78.91385769 9.53755782 -45.89672852 5.70239258 C-45.18770732 5.620032 -44.47868612 5.53767141 -43.74817944 5.45281506 C-40.38409872 5.06231072 -37.01992328 4.67268729 -33.65556335 4.28459167 C-25.32599914 3.31138045 -17.03068238 2.19638983 -8.74899292 0.87542725 C-5.79411943 0.40432187 -2.9983612 0 0 0 Z " fill="#1564A7" transform="translate(369,291)"/>
<path d="M0 0 C0 0.99 0 1.98 0 3 C-0.99 3 -1.98 3 -3 3 C-3.66 4.65 -4.32 6.3 -5 8 C-6.32 8 -7.64 8 -9 8 C-9 8.99 -9 9.98 -9 11 C-9.99 10.95875 -10.98 10.9175 -12 10.875 C-16.23989237 10.85776467 -19.91547886 11.91079436 -24 13 C-26.3898197 13 -28.70886865 12.90726497 -31.08984375 12.74609375 C-31.87423828 12.69646484 -32.65863281 12.64683594 -33.46679688 12.59570312 C-35.11029631 12.49046719 -36.75353716 12.38110982 -38.39648438 12.26757812 C-39.18216797 12.21923828 -39.96785156 12.17089844 -40.77734375 12.12109375 C-41.84843384 12.05039673 -41.84843384 12.05039673 -42.94116211 11.97827148 C-45.11708552 12.00123569 -46.89715944 12.47226614 -49 13 C-52.34166482 12.79424994 -55.6538877 12.51093087 -58.98046875 12.140625 C-63.93086541 11.71177708 -66.73517051 12.54959358 -71 15 C-73.875 15.1875 -73.875 15.1875 -76 15 C-75.67 14.01 -75.34 13.02 -75 12 C-76.27875 12.20625 -77.5575 12.4125 -78.875 12.625 C-81.0546875 12.9765625 -81.0546875 12.9765625 -83 13 C-83.66 12.34 -84.32 11.68 -85 11 C-84.06118988 10.87693985 -83.12237976 10.7538797 -82.15512085 10.62709045 C-73.29772557 9.46591573 -64.44047514 8.30364176 -55.58336449 7.14029789 C-51.03009501 6.54228104 -46.4767758 5.94464844 -41.92333984 5.34790039 C-37.52713854 4.77174415 -33.13107194 4.1945702 -28.73509598 3.61669731 C-27.05986897 3.39666099 -25.38459416 3.17698832 -23.70927048 2.95768929 C-21.35862345 2.64992691 -19.00815137 2.34085947 -16.65771484 2.03149414 C-15.96863037 1.94158203 -15.2795459 1.85166992 -14.56958008 1.7590332 C-11.60488134 1.36761664 -8.65655018 0.94109382 -5.70889282 0.43553162 C-3 0 -3 0 0 0 Z " fill="#0C4988" transform="translate(369,291)"/>
<path d="M0 0 C-0.2421875 1.90234375 -0.2421875 1.90234375 -1 4 C-2.8203125 4.94140625 -2.8203125 4.94140625 -5.125 5.5625 C-8.13602298 6.43991593 -11.00542851 7.35576646 -13.875 8.625 C-17 10 -17 10 -20 11 C-22.1875 9.5625 -22.1875 9.5625 -24 8 C-25.65 9.98 -27.3 11.96 -29 14 C-31.66666667 13.33333333 -34.33333333 12.66666667 -37 12 C-37 11.34 -37 10.68 -37 10 C-39.31 10.33 -41.62 10.66 -44 11 C-43.67 12.32 -43.34 13.64 -43 15 C-47.57219251 15.2540107 -47.57219251 15.2540107 -50 13.8125 C-50.66 13.544375 -51.32 13.27625 -52 13 C-52.7425 13.45375 -53.485 13.9075 -54.25 14.375 C-57.84883561 16.50158468 -60.9610901 16.59440561 -65 16 C-67.48652589 15.18366886 -69.64807065 14.17596467 -72 13 C-72 12.34 -72 11.68 -72 11 C-72.66 10.67 -73.32 10.34 -74 10 C-66.44571793 8.84252816 -58.89125451 7.68624635 -51.33656311 6.53144932 C-47.82796532 5.99509363 -44.31942927 5.45834079 -40.81103516 4.9206543 C-36.77004127 4.30136142 -32.72877793 3.68384287 -28.6875 3.06640625 C-27.4382373 2.87470352 -26.18897461 2.68300079 -24.90185547 2.48548889 C-7.57512977 -0.1578152 -7.57512977 -0.1578152 0 0 Z " fill="#063F7B" transform="translate(273,304)"/>
<path d="M0 0 C2.64 0 5.28 0 8 0 C10.76334343 3.90119073 9.65816443 7.57133945 9 12 C8.80889559 13.37366068 8.61805809 14.74735853 8.42749023 16.12109375 C8.22191021 17.55999871 8.01558724 18.99879769 7.80859375 20.4375 C7.69902847 21.20304199 7.5894632 21.96858398 7.47657776 22.75732422 C7.1308833 25.17164529 6.784209 27.58582444 6.4375 30 C6.20110671 31.64973025 5.96477799 33.29946975 5.72851562 34.94921875 C5.15308937 38.96625308 4.57678509 42.98316056 4 47 C3.67 47 3.34 47 3 47 C2.97303991 44.2291017 2.95318048 41.4584655 2.9375 38.6875 C2.92912109 37.90181641 2.92074219 37.11613281 2.91210938 36.30664062 C2.90888672 35.54931641 2.90566406 34.79199219 2.90234375 34.01171875 C2.89710693 33.31522217 2.89187012 32.61872559 2.88647461 31.90112305 C3 30 3 30 4 27 C4.66 27 5.32 27 6 27 C5.835 26.505 5.67 26.01 5.5 25.5 C4.79311182 21.96555911 4.93994845 18.60309299 5 15 C5.66 15 6.32 15 7 15 C6.505 13.02 6.505 13.02 6 11 C1.71 11 -2.58 11 -7 11 C-8.12126781 14.79788698 -8.12126781 14.79788698 -8 18 C-9.093125 18.12375 -10.18625 18.2475 -11.3125 18.375 C-15.07381802 18.75464801 -15.07381802 18.75464801 -18 21 C-18.99 21 -19.98 21 -21 21 C-21.99 23.475 -21.99 23.475 -23 26 C-24.134375 26.12375 -25.26875 26.2475 -26.4375 26.375 C-28.2009375 26.684375 -28.2009375 26.684375 -30 27 C-30.33 27.66 -30.66 28.32 -31 29 C-33.5625 29.625 -33.5625 29.625 -36 30 C-32.83525695 26.74483572 -29.67247209 23.67991207 -26 21 C-25.34 21 -24.68 21 -24 21 C-24 20.34 -24 19.68 -24 19 C-22.05460902 17.35528769 -20.10702673 15.82510588 -18.0625 14.3125 C-16.86950094 13.41575122 -15.67679413 12.51861352 -14.484375 11.62109375 C-13.89333984 11.17878418 -13.30230469 10.73647461 -12.69335938 10.28076172 C-9.64800942 7.97743043 -6.68087566 5.57421157 -3.70703125 3.1796875 C-2 2 -2 2 0 2 C0 1.34 0 0.68 0 0 Z " fill="#347DD8" transform="translate(382,141)"/>
<path d="M0 0 C2.49361571 1.20381448 4.68143083 2.45428722 7 4 C7 4.66 7 5.32 7 6 C7.71800781 6.24621094 8.43601563 6.49242187 9.17578125 6.74609375 C12.31794692 8.14116316 14.55095942 9.86471807 17.1875 12.0625 C20.41282987 14.80920164 20.41282987 14.80920164 24 17 C24 17.66 24 18.32 24 19 C24.515625 19.226875 25.03125 19.45375 25.5625 19.6875 C28.89547005 21.48217618 32.14703671 23.49965015 35 26 C35 26.66 35 27.32 35 28 C35.763125 28.2475 36.52625 28.495 37.3125 28.75 C40.2364045 30.10995558 41.30004356 31.31585826 43 34 C42.01 34 41.02 34 40 34 C40 33.34 40 32.68 40 32 C38.02 32.495 38.02 32.495 36 33 C36 32.34 36 31.68 36 31 C35.29875 31.061875 34.5975 31.12375 33.875 31.1875 C30.22185535 30.94925144 28.0508728 30.01080253 25 28 C24.1875 25.5 24.1875 25.5 24 23 C23.67 22.01 23.34 21.02 23 20 C21.68 20 20.36 20 19 20 C18.773125 19.360625 18.54625 18.72125 18.3125 18.0625 C17.16470196 15.73647686 17.16470196 15.73647686 14.5 15.375 C13.675 15.25125 12.85 15.1275 12 15 C11.34 14.34 10.68 13.68 10 13 C9.67 13.99 9.34 14.98 9 16 C8.67 16 8.34 16 8 16 C7.34 14.02 6.68 12.04 6 10 C5.01 10 4.02 10 3 10 C3 9.01 3 8.02 3 7 C2.34 6.67 1.68 6.34 1 6 C1.33 5.34 1.66 4.68 2 4 C1.10836423 1.88316159 1.10836423 1.88316159 0 0 Z " fill="#52D7DA" transform="translate(120,145)"/>
<path d="M0 0 C2.25 -0.25 2.25 -0.25 5 0 C7.3125 2 7.3125 2 9 4 C9.33 3.34 9.66 2.68 10 2 C10.66 2.33 11.32 2.66 12 3 C12 3.66 12 4.32 12 5 C12.99 4.67 13.98 4.34 15 4 C15.66 4.33 16.32 4.66 17 5 C17 6.98 17 8.96 17 11 C18.98 10.34 20.96 9.68 23 9 C23.33 10.32 23.66 11.64 24 13 C23.34 13 22.68 13 22 13 C22 13.66 22 14.32 22 15 C22.66 15 23.32 15 24 15 C24.28875 15.639375 24.5775 16.27875 24.875 16.9375 C25.82823451 19.15206079 25.82823451 19.15206079 28 20 C28 19.34 28 18.68 28 18 C29.65 17.67 31.3 17.34 33 17 C32.34 18.32 31.68 19.64 31 21 C31.66 21.33 32.32 21.66 33 22 C33.495 23.485 33.495 23.485 34 25 C34.99 25 35.98 25 37 25 C37 25.33 37 25.66 37 26 C37.99 26 38.98 26 40 26 C41.125 29.75 41.125 29.75 40 32 C35.94720693 30.26452178 32.66914362 27.53749398 29.25 24.8125 C28.3074939 24.06722046 28.3074939 24.06722046 27.34594727 23.30688477 C23.50899025 20.25546994 19.79337018 17.10697274 16.1484375 13.828125 C12.6549785 10.85550898 8.97866929 8.11671935 5.30249023 5.37475586 C1.10545803 2.21091607 1.10545803 2.21091607 0 0 Z " fill="#415BC7" transform="translate(199,207)"/>
<path d="M0 0 C2.97851562 0.24414062 2.97851562 0.24414062 5.95703125 0.48828125 C7.60703125 3.78828125 9.25703125 7.08828125 10.95703125 10.48828125 C9.96703125 10.98328125 9.96703125 10.98328125 8.95703125 11.48828125 C8.95703125 10.82828125 8.95703125 10.16828125 8.95703125 9.48828125 C7.30703125 9.81828125 5.65703125 10.14828125 3.95703125 10.48828125 C3.95703125 7.84828125 3.95703125 5.20828125 3.95703125 2.48828125 C2.08672692 4.11463284 1.05822746 5.02567002 0.51953125 7.48828125 C-0.26249328 10.26881291 -1.59882374 11.05054889 -4.04296875 12.48828125 C-5.03296875 12.48828125 -6.02296875 12.48828125 -7.04296875 12.48828125 C-7.04296875 14.13828125 -7.04296875 15.78828125 -7.04296875 17.48828125 C-8.03296875 17.81828125 -9.02296875 18.14828125 -10.04296875 18.48828125 C-10.64029694 21.25092414 -11.04296875 23.64860894 -11.04296875 26.48828125 C-16.39180596 31.48828125 -16.39180596 31.48828125 -19.04296875 31.48828125 C-17.72242598 27.99996714 -16.18851108 24.81307807 -14.328125 21.58203125 C-13.80669922 20.67324219 -13.28527344 19.76445312 -12.74804688 18.828125 C-12.20599609 17.89097656 -11.66394531 16.95382813 -11.10546875 15.98828125 C-10.56728516 15.05113281 -10.02910156 14.11398438 -9.47460938 13.1484375 C-8.00375847 10.59122445 -6.53024129 8.03597885 -5.04296875 5.48828125 C-4.53137207 4.57216064 -4.01977539 3.65604004 -3.49267578 2.7121582 C-2.04296875 0.48828125 -2.04296875 0.48828125 0 0 Z " fill="#8690EA" transform="translate(248.04296875,109.51171875)"/>
<path d="M0 0 C1.14229879 3.42689636 0.90861076 5.61102218 0.5625 9.1875 C0.46066406 10.27417969 0.35882813 11.36085937 0.25390625 12.48046875 C0.17011719 13.31191406 0.08632812 14.14335937 0 15 C-0.99 15.33 -1.98 15.66 -3 16 C-3 16.66 -3 17.32 -3 18 C-3.9590625 18.309375 -3.9590625 18.309375 -4.9375 18.625 C-7.34925077 19.89538209 -7.34925077 19.89538209 -7.75 23.125 C-7.8325 24.07375 -7.915 25.0225 -8 26 C-8.66 26 -9.32 26 -10 26 C-10 26.66 -10 27.32 -10 28 C-10.66 28.33 -11.32 28.66 -12 29 C-12.72159424 30.64363134 -13.39351421 32.31050386 -14 34 C-14.99 34 -15.98 34 -17 34 C-17.33 35.32 -17.66 36.64 -18 38 C-18.66 38 -19.32 38 -20 38 C-19.32970203 34.60873423 -18.02011007 31.98285235 -16.33203125 28.9765625 C-15.79271973 28.00750977 -15.2534082 27.03845703 -14.69775391 26.04003906 C-14.13749512 25.03682617 -13.57723633 24.03361328 -13 23 C-11.93868304 21.05095958 -10.88005927 19.10045006 -9.82421875 17.1484375 C-8.77864583 15.22395833 -7.73307292 13.29947917 -6.6875 11.375 C-6.15060547 10.38371094 -5.61371094 9.39242187 -5.06054688 8.37109375 C-4.54943359 7.43136719 -4.03832031 6.49164063 -3.51171875 5.5234375 C-2.82275513 4.2537915 -2.82275513 4.2537915 -2.11987305 2.95849609 C-1 1 -1 1 0 0 Z " fill="#626FDE" transform="translate(215,165)"/>
<path d="M0 0 C0.495 1.485 0.495 1.485 1 3 C0.401875 3.556875 -0.19625 4.11375 -0.8125 4.6875 C-3.06554812 6.86807263 -3.06554812 6.86807263 -4.3125 9.4375 C-6.56499867 12.85796094 -9.44906519 14.98922969 -13 17 C-13.66 17 -14.32 17 -15 17 C-15 17.66 -15 18.32 -15 19 C-16.6396721 20.36639342 -18.31110128 21.6949419 -20 23 C-20.598125 23.70125 -21.19625 24.4025 -21.8125 25.125 C-24.97312599 27.83410799 -27.94102774 28.18820555 -32 29 C-29.54837431 25.67279371 -27.72045706 23.73621329 -24 22 C-23.34 21.01 -22.68 20.02 -22 19 C-21.34 19 -20.68 19 -20 19 C-19.71125 18.05125 -19.4225 17.1025 -19.125 16.125 C-18 13 -18 13 -16 11 C-13.66666667 11 -11.33333333 11 -9 11 C-9 9.02 -9 7.04 -9 5 C-7.68 5.33 -6.36 5.66 -5 6 C-4.9175 5.38125 -4.835 4.7625 -4.75 4.125 C-4 2 -4 2 -1.9375 0.75 C-1.298125 0.5025 -0.65875 0.255 0 0 Z " fill="#1B8CC8" transform="translate(220,269)"/>
<path d="M0 0 C0.66 0.33 1.32 0.66 2 1 C1.3503125 1.69867188 0.700625 2.39734375 0.03125 3.1171875 C-0.8040625 4.02726563 -1.639375 4.93734375 -2.5 5.875 C-3.3353125 6.77992188 -4.170625 7.68484375 -5.03125 8.6171875 C-7.21231559 10.74181632 -7.21231559 10.74181632 -7 13 C-7.99 13.495 -7.99 13.495 -9 14 C-8.34 14.33 -7.68 14.66 -7 15 C-7 15.99 -7 16.98 -7 18 C-9.32714717 18.62653962 -11.53986432 19.06891885 -13.9375 19.375 C-18.72833425 20.35272128 -21.28994908 21.93492362 -24 26 C-25.9453125 26.51171875 -25.9453125 26.51171875 -28.125 26.6875 C-29.40375 26.790625 -30.6825 26.89375 -32 27 C-27.46217403 22.1596523 -22.40199452 17.85310406 -17 14 C-16.34 14 -15.68 14 -15 14 C-15 13.34 -15 12.68 -15 12 C-12.90773676 10.25546502 -10.81308978 8.6156781 -8.625 7 C-4.14076607 3.70464663 -4.14076607 3.70464663 0 0 Z " fill="#3885D9" transform="translate(343,172)"/>
<path d="M0 0 C3.75068199 0.45008184 4.78988517 1.50101252 7.125 4.375 C4.155 3.88 4.155 3.88 1.125 3.375 C1.125 5.355 1.125 7.335 1.125 9.375 C0.135 9.375 -0.855 9.375 -1.875 9.375 C-1.73457123 11.02130328 -1.58750671 12.66704179 -1.4375 14.3125 C-1.35628906 15.22902344 -1.27507812 16.14554688 -1.19140625 17.08984375 C-1.11455024 19.33659732 -1.11455024 19.33659732 0.125 20.375 C0.3394724 22.68355704 0.4954963 24.99762142 0.625 27.3125 C0.8910683 31.84479872 1.1921412 36.36095575 1.6875 40.875 C2.10084967 44.73723597 2.20940227 48.49249541 2.125 52.375 C-0.02355162 48.7952023 -0.41754941 45.42190036 -0.91015625 41.30859375 C-0.99373886 40.63329117 -1.07732147 39.95798859 -1.16343689 39.26222229 C-1.42842649 37.11309686 -1.68352845 34.96295294 -1.9375 32.8125 C-2.19653351 30.65869766 -2.45769228 28.50519386 -2.72227478 26.35206604 C-2.96131123 24.40118539 -3.19383117 22.44950958 -3.42602539 20.49780273 C-3.78372527 17.35215342 -3.78372527 17.35215342 -4.875 14.375 C-4.99404875 12.35670839 -5.05021712 10.33426229 -5.0625 8.3125 C-5.07667969 7.24902344 -5.09085937 6.18554688 -5.10546875 5.08984375 C-4.77598158 1.20859659 -3.82186119 0.49850363 0 0 Z " fill="#5AD5D6" transform="translate(112.875,140.625)"/>
<path d="M0 0 C-2.39509338 2.89932357 -4.31245243 3.50168276 -8 4 C-8.14115234 4.88945312 -8.14115234 4.88945312 -8.28515625 5.796875 C-9.15945219 8.49142641 -10.26720318 9.46322756 -12.4375 11.25 C-13.05496094 11.77078125 -13.67242187 12.2915625 -14.30859375 12.828125 C-16 14 -16 14 -18 14 C-18.33 15.32 -18.66 16.64 -19 18 C-16.69 18 -14.38 18 -12 18 C-12 18.33 -12 18.66 -12 19 C-14.56055758 19.53257191 -17.12266329 20.05131844 -19.6875 20.5625 C-20.40873047 20.71396484 -21.12996094 20.86542969 -21.87304688 21.02148438 C-25.88884763 21.80997493 -28.98291885 22.19640878 -33 21 C-32.360625 20.566875 -31.72125 20.13375 -31.0625 19.6875 C-28.73253997 18.08760823 -28.73253997 18.08760823 -28 15 C-25.69 15 -23.38 15 -21 15 C-20.71125 14.4225 -20.4225 13.845 -20.125 13.25 C-19.75375 12.5075 -19.3825 11.765 -19 11 C-18.71125 10.278125 -18.4225 9.55625 -18.125 8.8125 C-17 7 -17 7 -14.9375 6.4375 C-13.9784375 6.2209375 -13.9784375 6.2209375 -13 6 C-12.67 5.01 -12.34 4.02 -12 3 C-9.78515625 1.796875 -9.78515625 1.796875 -7.0625 0.75 C-5.71865234 0.21632813 -5.71865234 0.21632813 -4.34765625 -0.328125 C-2 -1 -2 -1 0 0 Z " fill="#1E8ECA" transform="translate(188,299)"/>
<path d="M0 0 C0.99 0.33 1.98 0.66 3 1 C-0.74456417 4.19285723 -4.50026528 7.37170945 -8.26806641 10.53710938 C-9.83765632 11.8628752 -11.39422482 13.20401931 -12.94921875 14.546875 C-13.81160156 15.27390625 -14.67398437 16.0009375 -15.5625 16.75 C-16.32691406 17.40484375 -17.09132812 18.0596875 -17.87890625 18.734375 C-20 20 -20 20 -22.01171875 19.92578125 C-24.49722338 18.76848342 -26.23059651 17.28861986 -28.25 15.4375 C-28.95640625 14.79683594 -29.6628125 14.15617188 -30.390625 13.49609375 C-30.92171875 13.00238281 -31.4528125 12.50867188 -32 12 C-31.34 11.34 -30.68 10.68 -30 10 C-29.67 10.66 -29.34 11.32 -29 12 C-28.32453125 12 -27.6490625 12 -26.953125 12 C-22.96875 12 -18.984375 12 -15 12 C-15 10.68 -15 9.36 -15 8 C-15 7.01 -15 6.02 -15 5 C-13.68 4.67 -12.36 4.34 -11 4 C-11 4.99 -11 5.98 -11 7 C-9.00016466 6.20882096 -9.00016466 6.20882096 -7 5 C-6.67 4.01 -6.34 3.02 -6 2 C-4.7934375 1.7834375 -4.7934375 1.7834375 -3.5625 1.5625 C-1.07896294 1.25864751 -1.07896294 1.25864751 0 0 Z " fill="#2448AB" transform="translate(271,228)"/>
<path d="M0 0 C-0.33 1.32 -0.66 2.64 -1 4 C-5.39640163 5.62475713 -8.39917104 6.1006663 -13.0625 5.4375 C-17.66425366 4.82393285 -19.94263464 5.64106665 -24 8 C-26.875 8.1875 -26.875 8.1875 -29 8 C-28.67 7.01 -28.34 6.02 -28 5 C-29.27875 5.20625 -30.5575 5.4125 -31.875 5.625 C-34.0546875 5.9765625 -34.0546875 5.9765625 -36 6 C-36.66 5.34 -37.32 4.68 -38 4 C-33.87495128 3.42341326 -29.74898697 2.85403813 -25.62207031 2.29101562 C-24.22141397 2.09893298 -22.82101522 1.90496127 -21.42089844 1.70898438 C-7.101645 -0.29285134 -7.101645 -0.29285134 0 0 Z " fill="#053875" transform="translate(322,298)"/>
<path d="M0 0 C0.99 0.33 1.98 0.66 3 1 C3 3 3 5 3 7 C6.3 7 9.6 7 13 7 C13 7.66 13 8.32 13 9 C13.66 9.33 14.32 9.66 15 10 C14.01 10.66 13.02 11.32 12 12 C12.99 12.99 13.98 13.98 15 15 C14.67 15.66 14.34 16.32 14 17 C15.65 17.66 17.3 18.32 19 19 C19 19.66 19 20.32 19 21 C13.33822218 19.5482621 8.50540116 16.68441695 4 13 C4 12.34 4 11.68 4 11 C3.34 11 2.68 11 2 11 C2 10.34 2 9.68 2 9 C1.34 9 0.68 9 0 9 C-2.1519437 5.77208445 -2.20086443 4.71599191 -2 1 C-1.34 0.67 -0.68 0.34 0 0 Z " fill="#36A5B8" transform="translate(141,312)"/>
<path d="M0 0 C1.32 0.33 2.64 0.66 4 1 C4.33 2.32 4.66 3.64 5 5 C-8.29545455 12.74090909 -8.29545455 12.74090909 -17 11 C-16.34 8.69 -15.68 6.38 -15 4 C-13.35 4.33 -11.7 4.66 -10 5 C-9.34 4.01 -8.68 3.02 -8 2 C-7.01 3.485 -7.01 3.485 -6 5 C-4.68 4.01 -3.36 3.02 -2 2 C-1.34 2.33 -0.68 2.66 0 3 C0 2.01 0 1.02 0 0 Z " fill="#176DBD" transform="translate(344,324)"/>
<path d="M0 0 C1.98 0.66 3.96 1.32 6 2 C2.55210072 5.53614533 -1.00606866 8.77960873 -4.8125 11.9375 C-5.33513428 12.3713501 -5.85776855 12.8052002 -6.39624023 13.25219727 C-9.97336712 16.20353316 -13.61662061 19.0356299 -17.37890625 21.74609375 C-19.06419567 23.04965496 -20.52645875 24.46375487 -22 26 C-24.475 25.01 -24.475 25.01 -27 24 C-27 23.01 -27 22.02 -27 21 C-23.92382812 20.70703125 -23.92382812 20.70703125 -20.84765625 20.4140625 C-20.23792969 20.27742188 -19.62820313 20.14078125 -19 20 C-18.67 19.34 -18.34 18.68 -18 18 C-17.34 18 -16.68 18 -16 18 C-16 17.34 -16 16.68 -16 16 C-15.34 16 -14.68 16 -14 16 C-14 15.34 -14 14.68 -14 14 C-13.236875 13.731875 -12.47375 13.46375 -11.6875 13.1875 C-9.12619116 12.05575888 -7.80307062 11.08776599 -6 9 C-6.33 8.34 -6.66 7.68 -7 7 C-6.34 6.67 -5.68 6.34 -5 6 C-4.67 5.01 -4.34 4.02 -4 3 C-1.9375 2.3125 -1.9375 2.3125 0 2 C0 1.34 0 0.68 0 0 Z " fill="#2F55C0" transform="translate(298,202)"/>
<path d="M0 0 C-1.49291185 3.80013925 -3.62377323 5.74918216 -7 8 C-8.32 8 -9.64 8 -11 8 C-11.33 7.34 -11.66 6.68 -12 6 C-13.65 6 -15.3 6 -17 6 C-17.33 6.66 -17.66 7.32 -18 8 C-20.375 8.1875 -20.375 8.1875 -23 8 C-23.66 7.01 -24.32 6.02 -25 5 C-16.82302409 1.66863944 -8.87234165 -0.38575398 0 0 Z " fill="#0B5986" transform="translate(177,318)"/>
<path d="M0 0 C0.98484375 0.11085938 1.9696875 0.22171875 2.984375 0.3359375 C3.73203125 0.43132812 4.4796875 0.52671875 5.25 0.625 C5.58 2.275 5.91 3.925 6.25 5.625 C1.67780749 5.8790107 1.67780749 5.8790107 -0.75 4.4375 C-1.41 4.169375 -2.07 3.90125 -2.75 3.625 C-3.4925 4.07875 -4.235 4.5325 -5 5 C-8.59883561 7.12658468 -11.7110901 7.21940561 -15.75 6.625 C-18.23652589 5.80866886 -20.39807065 4.80096467 -22.75 3.625 C-22.75 2.965 -22.75 2.305 -22.75 1.625 C-21.41195312 1.65980469 -21.41195312 1.65980469 -20.046875 1.6953125 C-18.87640625 1.71335937 -17.7059375 1.73140625 -16.5 1.75 C-15.33984375 1.77320313 -14.1796875 1.79640625 -12.984375 1.8203125 C-9.84940508 1.84334944 -9.84940508 1.84334944 -7.6875 0.59375 C-4.97245274 -0.76377363 -2.98111713 -0.3548949 0 0 Z " fill="#0B4B81" transform="translate(223.75,313.375)"/>
<path d="M0 0 C0.66 0 1.32 0 2 0 C2 0.66 2 1.32 2 2 C10.73942697 3.22727585 19.47857732 3.22458793 28.28515625 3.31640625 C29.95381646 3.33701117 31.62247186 3.35800848 33.29112244 3.37937927 C37.65575234 3.43423497 42.02042646 3.4838032 46.38513184 3.53222656 C50.84989293 3.58271034 55.31459084 3.63825526 59.77929688 3.69335938 C68.51947763 3.80049357 77.25971168 3.90203541 86 4 C86 4.33 86 4.66 86 5 C75.54255492 5.04637658 65.08513439 5.08189629 54.62760735 5.10362434 C49.771558 5.11405364 44.91557911 5.1281973 40.05957031 5.15087891 C35.37170852 5.17263766 30.68391442 5.18457506 25.99600601 5.18975449 C24.20907653 5.19344479 22.42215069 5.20065103 20.63525009 5.21146011 C18.12898553 5.22601531 15.62299937 5.22797626 13.11669922 5.22705078 C12.38086105 5.23424133 11.64502289 5.24143188 10.8868866 5.24884033 C6.54686886 5.23154223 3.03517707 4.59582185 -1 3 C-0.67 2.01 -0.34 1.02 0 0 Z " fill="#2374A6" transform="translate(162,331)"/>
<path d="M0 0 C2.86724686 0.57344937 3.8614515 0.8614515 6 3 C5.875 4.9375 5.875 4.9375 5 7 C2.9375 8.75 2.9375 8.75 1 10 C1.33 10.66 1.66 11.32 2 12 C1.071875 12.598125 0.14375 13.19625 -0.8125 13.8125 C-3.87500551 15.75681763 -3.87500551 15.75681763 -5.625 17.6875 C-7 19 -7 19 -8.9375 19.4375 C-11.76506306 20.20865356 -13.06916116 21.86228557 -15 24 C-15.66 23.67 -16.32 23.34 -17 23 C-11.35475578 17.19794344 -11.35475578 17.19794344 -8 15 C-7.34 15 -6.68 15 -6 15 C-6.33 14.01 -6.66 13.02 -7 12 C-6.01 12.33 -5.02 12.66 -4 13 C-2.23537317 9.91190305 -2 8.76687864 -2 5 C-1.34 4.67 -0.68 4.34 0 4 C0 2.68 0 1.36 0 0 Z " fill="#1885B1" transform="translate(242,244)"/>
<path d="M0 0 C3.64187858 1.21395953 3.91745993 2.09006077 5.6875 5.375 C6.12449219 6.16648438 6.56148438 6.95796875 7.01171875 7.7734375 C8 10 8 10 8 13 C8.66 13 9.32 13 10 13 C9.67 13.66 9.34 14.32 9 15 C7.68 14.34 6.36 13.68 5 13 C4.34 14.32 3.68 15.64 3 17 C1.0625 16.1875 1.0625 16.1875 -1 15 C-2 12 -2 12 -0.9375 8.5 C-0.628125 7.345 -0.31875 6.19 0 5 C-0.66 4.01 -1.32 3.02 -2 2 C-1.34 1.34 -0.68 0.68 0 0 Z " fill="#6A7BE8" transform="translate(259,123)"/>
<path d="M0 0 C1.65 0 3.3 0 5 0 C4.67 1.32 4.34 2.64 4 4 C3.67 3.34 3.34 2.68 3 2 C2.34 2 1.68 2 1 2 C1 2.66 1 3.32 1 4 C1.78260696 3.99555878 2.56521393 3.99111755 3.37153625 3.98654175 C10.74338276 3.94648373 18.11517656 3.91602516 25.48710346 3.89637566 C29.27717541 3.88593409 33.0671575 3.87176818 36.85717773 3.84912109 C40.51409477 3.82740587 44.17092531 3.81543418 47.82790184 3.81024551 C49.22377064 3.80654737 50.61963466 3.79932589 52.01546669 3.78853989 C53.96900449 3.77404337 55.92262913 3.77318324 57.8762207 3.77294922 C59.5450103 3.76628738 59.5450103 3.76628738 61.24751282 3.75949097 C64 4 64 4 67 6 C41.59 6 16.18 6 -10 6 C-10 5.67 -10 5.34 -10 5 C-7.36 5 -4.72 5 -2 5 C-1.34 3.35 -0.68 1.7 0 0 Z " fill="#276DAE" transform="translate(258,330)"/>
<path d="M0 0 C2.35171131 0.59861742 4.6859378 1.26924352 7 2 C7.33 2.66 7.66 3.32 8 4 C4.78871275 10.37127599 0.94234143 15.99237438 -5 20 C-5.66 20 -6.32 20 -7 20 C-7 19.01 -7 18.02 -7 17 C-6.01 17 -5.02 17 -4 17 C-4.33 16.01 -4.66 15.02 -5 14 C-4.01 14 -3.02 14 -2 14 C-2 13.01 -2 12.02 -2 11 C-0.68 11 0.64 11 2 11 C2 10.01 2 9.02 2 8 C1.01 7.67 0.02 7.34 -1 7 C-1 6.34 -1 5.68 -1 5 C-1.66 4.67 -2.32 4.34 -3 4 C-2.01 2.68 -1.02 1.36 0 0 Z " fill="#2A73B7" transform="translate(356,308)"/>
<path d="M0 0 C3.04337302 3.59064623 5.32194089 7.20698688 7.5 11.375 C9.41942851 15.01985028 11.34005303 18.64199355 13.4375 22.1875 C15 25 15 25 15 27 C12.03 26.01 9.06 25.02 6 24 C6.66 22.68 7.32 21.36 8 20 C7.25601339 17.79807312 7.25601339 17.79807312 5.8125 15.6875 C3.49902428 11.86963297 1.67177091 8.1354333 0 4 C-0.99 4.495 -0.99 4.495 -2 5 C-2 3.68 -2 2.36 -2 1 C-1.34 0.67 -0.68 0.34 0 0 Z " fill="#868FE2" transform="translate(276,151)"/>
<path d="M0 0 C4.16932012 1.96742283 7.52477153 4.59072141 11.125 7.4375 C11.75792969 7.92798828 12.39085937 8.41847656 13.04296875 8.92382812 C13.65011719 9.40142578 14.25726563 9.87902344 14.8828125 10.37109375 C15.70869873 11.0196936 15.70869873 11.0196936 16.55126953 11.68139648 C18 13 18 13 20 16 C17.50638429 14.79618552 15.31856917 13.54571278 13 12 C10.48415109 11.75849227 10.48415109 11.75849227 7.8125 11.875 C6.46091797 11.90207031 6.46091797 11.90207031 5.08203125 11.9296875 C4.05142578 11.96449219 4.05142578 11.96449219 3 12 C0.86818786 8.25712373 1.04314575 6.21015871 2 2 C1.34 2 0.68 2 0 2 C0 1.34 0 0.68 0 0 Z " fill="#2AA2CC" transform="translate(223,228)"/>
<path d="M0 0 C2.68234235 2.42457972 4.36856725 5.07510397 6.1875 8.1875 C6.71730469 9.08855469 7.24710937 9.98960937 7.79296875 10.91796875 C8.19128906 11.60503906 8.58960938 12.29210937 9 13 C9.99 12.67 10.98 12.34 12 12 C12 11.34 12 10.68 12 10 C12.66 10 13.32 10 14 10 C13.67 12.31 13.34 14.62 13 17 C12.01 16.67 11.02 16.34 10 16 C7.85744207 16.38932856 7.85744207 16.38932856 6 17 C5.67 16.34 5.34 15.68 5 15 C3.35636866 14.27840576 1.68949614 13.60648579 0 13 C0 8.66666667 0 4.33333333 0 0 Z " fill="#5563CF" transform="translate(297,189)"/>
<path d="M0 0 C0.66 0.33 1.32 0.66 2 1 C1.49080682 13.8062086 -0.87801762 26.38460091 -3 39 C-6 35.25 -6 35.25 -6 33 C-5.34 33 -4.68 33 -4 33 C-4.01160156 32.14535156 -4.02320313 31.29070312 -4.03515625 30.41015625 C-4.04417969 29.30542969 -4.05320312 28.20070313 -4.0625 27.0625 C-4.07410156 25.96035156 -4.08570313 24.85820312 -4.09765625 23.72265625 C-4 21 -4 21 -3 20 C-2.79111292 18.00396794 -2.63224523 16.00257059 -2.5 14 C-2.11111111 8.11111111 -2.11111111 8.11111111 -1 7 C-0.63239269 4.67182036 -0.29758419 2.3381615 0 0 Z " fill="#6397D2" transform="translate(373,255)"/>
<path d="M0 0 C1.08892712 2.83121051 0.96109941 4.16532751 0.25 7.1875 C-0.1625 8.115625 -0.575 9.04375 -1 10 C-1.99 10.33 -2.98 10.66 -4 11 C-4 12.65 -4 14.3 -4 16 C-4.99 16.33 -5.98 16.66 -7 17 C-7.59732819 19.76264289 -8 22.16032769 -8 25 C-13.34883721 30 -13.34883721 30 -16 30 C-14.67473823 26.49344801 -13.12761318 23.30119891 -11.25 20.05859375 C-10.7240625 19.14529297 -10.198125 18.23199219 -9.65625 17.29101562 C-9.1096875 16.34935547 -8.563125 15.40769531 -8 14.4375 C-6.91571917 12.5617453 -5.83235014 10.68546317 -4.75 8.80859375 C-4.03070313 7.56807251 -4.03070313 7.56807251 -3.296875 6.30249023 C-2.12919089 4.22936733 -1.04205056 2.138477 0 0 Z " fill="#9FA6EB" transform="translate(245,111)"/>
<path d="M0 0 C-0.33 1.32 -0.66 2.64 -1 4 C-6.78357065 6.01167675 -11.90218999 6.22084624 -18 6 C-18.33 4.68 -18.66 3.36 -19 2 C-12.6221448 0.82706111 -6.49678438 -0.29530838 0 0 Z " fill="#073C77" transform="translate(273,304)"/>
<path d="M0 0 C0 0.66 0 1.32 0 2 C-3.52706465 3.57605772 -6.46416009 4.27723069 -10.3125 4.5 C-13.85130097 4.7527715 -17.03473467 5.1870615 -20.4375 6.1875 C-24 7 -24 7 -26.5 6.125 C-26.995 5.75375 -27.49 5.3825 -28 5 C-28 4.34 -28 3.68 -28 3 C-24.45926096 2.4932817 -20.91727889 1.99582971 -17.375 1.5 C-16.37597656 1.35691406 -15.37695312 1.21382813 -14.34765625 1.06640625 C-9.53055443 0.39647818 -4.87803213 -0.19978289 0 0 Z " fill="#063772" transform="translate(352,294)"/>
<path d="M0 0 C0 0.33 0 0.66 0 1 C-1.175625 1.0928125 -1.175625 1.0928125 -2.375 1.1875 C-3.24125 1.455625 -4.1075 1.72375 -5 2 C-5.226875 2.804375 -5.45375 3.60875 -5.6875 4.4375 C-7 7 -7 7 -9.33984375 7.7734375 C-11.88912221 8.26684623 -14.42332964 8.68148171 -17 9 C-16.67 7.68 -16.34 6.36 -16 5 C-17.32 4.01 -18.64 3.02 -20 2 C-13.25846717 0.74158054 -6.86515862 -0.26404456 0 0 Z " fill="#075083" transform="translate(198,315)"/>
<path d="M0 0 C2.9719385 1.12451727 5.33440687 2.22293791 8 4 C8 3.34 8 2.68 8 2 C9.65 1.67 11.3 1.34 13 1 C12.34 2.32 11.68 3.64 11 5 C11.66 5.33 12.32 5.66 13 6 C13.33 6.99 13.66 7.98 14 9 C14.99 9 15.98 9 17 9 C17 9.33 17 9.66 17 10 C17.99 10 18.98 10 20 10 C21.125 13.75 21.125 13.75 20 16 C15.83067988 14.03257717 12.47522847 11.40927859 8.875 8.5625 C8.24207031 8.07201172 7.60914063 7.58152344 6.95703125 7.07617188 C6.04630859 6.35977539 6.04630859 6.35977539 5.1171875 5.62890625 C4.56659668 5.19650635 4.01600586 4.76410645 3.44873047 4.31860352 C2 3 2 3 0 0 Z " fill="#3152B6" transform="translate(219,223)"/>
<path d="M0 0 C0.99 0 1.98 0 3 0 C3 0.99 3 1.98 3 3 C2.01 3 1.02 3 0 3 C-0.66 4.65 -1.32 6.3 -2 8 C-3.32 8 -4.64 8 -6 8 C-6 8.99 -6 9.98 -6 11 C-9.96 11 -13.92 11 -18 11 C-16.39993396 8.40678952 -15.39098424 6.80595618 -13 5 C-10.09117965 4.48445979 -7.37783049 4.37446958 -4.42578125 4.3984375 C-3.22501953 4.20121094 -3.22501953 4.20121094 -2 4 C-0.60603264 2.06861884 -0.60603264 2.06861884 0 0 Z " fill="#104C8D" transform="translate(366,291)"/>
<path d="M0 0 C0 0.66 0 1.32 0 2 C0.66 2.33 1.32 2.66 2 3 C1.67 3.66 1.34 4.32 1 5 C0.01 5 -0.98 5 -2 5 C-4.11297898 7.30506797 -5.73118917 9.354854 -6.9375 12.25 C-8 14 -8 14 -10.625 14.75 C-11.40875 14.8325 -12.1925 14.915 -13 15 C-13.33 14.01 -13.66 13.02 -14 12 C-12.48828125 9.58984375 -12.48828125 9.58984375 -10.3125 6.9375 C-9.60738281 6.05964844 -8.90226562 5.18179688 -8.17578125 4.27734375 C-5.6640796 1.64839929 -3.70644938 0 0 0 Z " fill="#297CDE" transform="translate(351,169)"/>
<path d="M0 0 C0.66 0.33 1.32 0.66 2 1 C1.54625 1.433125 1.0925 1.86625 0.625 2.3125 C-1.20024334 4.10798342 -1.20024334 4.10798342 -3 7 C-3.99 7 -4.98 7 -6 7 C-6.33 7.66 -6.66 8.32 -7 9 C-5.68 9.33 -4.36 9.66 -3 10 C-3 10.66 -3 11.32 -3 12 C-9.435 12.495 -9.435 12.495 -16 13 C-13.91832056 7.79580139 -12.10080225 6.18605811 -7 4 C-5.66209359 3.00612666 -4.32781878 2.0073108 -3 1 C-2.01 0.67 -1.02 0.34 0 0 Z " fill="#1B88D3" transform="translate(193,296)"/>
<path d="M0 0 C0.33 0 0.66 0 1 0 C0.32743985 5.488523 -0.40395982 10.96437631 -1.19140625 16.4375 C-1.30097153 17.20304199 -1.4105368 17.96858398 -1.52342224 18.75732422 C-1.8691167 21.17164529 -2.215791 23.58582444 -2.5625 26 C-2.79889329 27.64973025 -3.03522201 29.29946975 -3.27148438 30.94921875 C-3.84691063 34.96625308 -4.42321491 38.98316056 -5 43 C-5.33 43 -5.66 43 -6 43 C-6.02696009 40.2291017 -6.04681952 37.4584655 -6.0625 34.6875 C-6.07087891 33.90181641 -6.07925781 33.11613281 -6.08789062 32.30664062 C-6.09111328 31.54931641 -6.09433594 30.79199219 -6.09765625 30.01171875 C-6.10289307 29.31522217 -6.10812988 28.61872559 -6.11352539 27.90112305 C-6 26 -6 26 -5 23 C-4.34 23 -3.68 23 -3 23 C-3.2475 22.2575 -3.2475 22.2575 -3.5 21.5 C-4.20688818 17.96555911 -4.06005155 14.60309299 -4 11 C-3.34 11 -2.68 11 -2 11 C-2 8.69 -2 6.38 -2 4 C-1.34 4 -0.68 4 0 4 C0 2.68 0 1.36 0 0 Z " fill="#7CAADE" transform="translate(391,145)"/>
<path d="M0 0 C3.96747902 1.73393527 7.27514474 4.31871573 10.6875 6.9375 C11.28111328 7.38029297 11.87472656 7.82308594 12.48632812 8.27929688 C16.88041693 11.6412508 16.88041693 11.6412508 18 15 C18.928125 15.4640625 18.928125 15.4640625 19.875 15.9375 C22.40597375 17.20298687 23.44848558 18.67272837 25 21 C21.21388773 20.45912682 19.44599233 18.88277668 17 16 C17 15.34 17 14.68 17 14 C15.10820797 13.3185177 15.10820797 13.3185177 13 13 C12.34 13.66 11.68 14.32 11 15 C11 14.01 11 13.02 11 12 C10.34 12 9.68 12 9 12 C9 11.34 9 10.68 9 10 C8.01 10 7.02 10 6 10 C5.7525 9.46375 5.505 8.9275 5.25 8.375 C3.70303025 5.43575748 1.86985631 2.74245592 0 0 Z " fill="#3CCFD0" transform="translate(177,190)"/>
<path d="M0 0 C0.99 0 1.98 0 3 0 C1.98408579 5.46864457 0.92908943 10.76390013 -1 16 C-3 15 -3 15 -3.9375 12.5 C-4.288125 11.675 -4.63875 10.85 -5 10 C-5.99 9.67 -6.98 9.34 -8 9 C-7.34 8.67 -6.68 8.34 -6 8 C-6 7.01 -6 6.02 -6 5 C-5.38125 4.9175 -4.7625 4.835 -4.125 4.75 C-1.81562433 4.18741541 -1.81562433 4.18741541 -0.75 1.9375 C-0.5025 1.298125 -0.255 0.65875 0 0 Z " fill="#10599F" transform="translate(366,294)"/>
<path d="M0 0 C0.99 0 1.98 0 3 0 C3 0.66 3 1.32 3 2 C2.01 2 1.02 2 0 2 C-0.12375 3.27875 -0.2475 4.5575 -0.375 5.875 C-0.75 9.75 -0.75 9.75 -3 12 C-3.81181669 14.27818714 -4.46027707 16.58017529 -5.12109375 18.90625 C-6 21 -6 21 -9 23 C-9.99 23 -10.98 23 -12 23 C-12 22.01 -12 21.02 -12 20 C-11.34 20 -10.68 20 -10 20 C-9.87761963 19.42024414 -9.75523926 18.84048828 -9.62915039 18.24316406 C-8.9838481 15.94241223 -8.11850933 14.17880503 -6.93359375 12.109375 C-6.53076172 11.40039062 -6.12792969 10.69140625 -5.71289062 9.9609375 C-5.29201172 9.23132813 -4.87113281 8.50171875 -4.4375 7.75 C-4.01275391 7.00492188 -3.58800781 6.25984375 -3.15039062 5.4921875 C-2.10453958 3.65901039 -1.05283808 1.82917323 0 0 Z " fill="#7A86E1" transform="translate(228,142)"/>
<path d="M0 0 C0.53625 0.474375 1.0725 0.94875 1.625 1.4375 C4.42842836 3.28186076 6.69620258 3.62456847 10 4 C10 4.66 10 5.32 10 6 C10.763125 6.2475 11.52625 6.495 12.3125 6.75 C15.2364045 8.10995558 16.30004356 9.31585826 18 12 C17.01 12 16.02 12 15 12 C15 11.34 15 10.68 15 10 C13.68 10.33 12.36 10.66 11 11 C11 10.34 11 9.68 11 9 C10.29875 9.061875 9.5975 9.12375 8.875 9.1875 C5.22185535 8.94925144 3.0508728 8.01080253 0 6 C-0.9375 3.375 -0.9375 3.375 -1 1 C-0.67 0.67 -0.34 0.34 0 0 Z " fill="#2BCED3" transform="translate(145,167)"/>
<path d="M0 0 C1.32 0 2.64 0 4 0 C4.66 0.99 5.32 1.98 6 3 C7.27875 2.814375 8.5575 2.62875 9.875 2.4375 C13.75 1.875 13.75 1.875 16 3 C16 3.99 16 4.98 16 6 C16.66 6.33 17.32 6.66 18 7 C17.67 7.33 17.34 7.66 17 8 C15.47480724 7.91062197 13.95318071 7.75462854 12.4375 7.5625 C11.61121094 7.46066406 10.78492188 7.35882813 9.93359375 7.25390625 C9.29550781 7.17011719 8.65742188 7.08632813 8 7 C8 6.34 8 5.68 8 5 C6.02 5.99 6.02 5.99 4 7 C3.54625 6.525625 3.0925 6.05125 2.625 5.5625 C1.06741796 3.90972192 1.06741796 3.90972192 -1 3 C-0.67 2.01 -0.34 1.02 0 0 Z " fill="#1479A3" transform="translate(156,326)"/>
<path d="M0 0 C0.66 0 1.32 0 2 0 C2 0.66 2 1.32 2 2 C5.23398085 2.9799942 6.89790131 3.03002903 10.1875 2.0625 C14.89250467 0.75126919 19.15312918 0.82445941 24 1 C19.29150315 5.70849685 11.0294602 5.35434773 4.734375 5.75390625 C2.05881237 5.91773285 2.05881237 5.91773285 -0.234375 6.58984375 C-2 7 -2 7 -4 6 C-3.34 5.01 -2.68 4.02 -2 3 C-1.34 3 -0.68 3 0 3 C0 2.01 0 1.02 0 0 Z " fill="#0A3F7B" transform="translate(322,297)"/>
<path d="M0 0 C4.4571874 0.26218749 6.51522698 0.57711289 9.9375 3.5625 C10.618125 4.366875 11.29875 5.17125 12 6 C11.67 6.66 11.34 7.32 11 8 C10.113125 7.938125 9.22625 7.87625 8.3125 7.8125 C4.65514983 8.01951982 2.95222849 8.916074 0 11 C0 9.68 0 8.36 0 7 C0.66 6.67 1.32 6.34 2 6 C2.65555119 3.47266765 2.65555119 3.47266765 3 1 C2.01 0.67 1.02 0.34 0 0 Z " fill="#29D0D3" transform="translate(111,143)"/>
<path d="M0 0 C0.66 0.66 1.32 1.32 2 2 C3.3921875 1.9690625 3.3921875 1.9690625 4.8125 1.9375 C8.48435007 2.00949706 10.02884602 2.93669862 13 5 C13.66 5.33 14.32 5.66 15 6 C13.25 8.0625 13.25 8.0625 11 10 C7.35097928 9.69591494 5.38085558 7.84911762 2.75 5.4375 C2.04359375 4.79683594 1.3371875 4.15617188 0.609375 3.49609375 C0.07828125 3.00238281 -0.4528125 2.50867188 -1 2 C-0.67 1.34 -0.34 0.68 0 0 Z " fill="#2349A6" transform="translate(240,238)"/>
<path d="M0 0 C0.06058594 0.96679688 0.12117188 1.93359375 0.18359375 2.9296875 C0.74509786 11.72518645 0.74509786 11.72518645 1.5625 20.5 C1.97584967 24.36223597 2.08440227 28.11749541 2 32 C0.36554252 29.06235982 -0.38516677 26.54873519 -0.8515625 23.2265625 C-0.98046875 22.3190625 -1.109375 21.4115625 -1.2421875 20.4765625 C-1.36851563 19.53554687 -1.49484375 18.59453125 -1.625 17.625 C-1.7590625 16.69171875 -1.893125 15.7584375 -2.03125 14.796875 C-2.67442087 10.16341954 -3.17257114 5.69079724 -3 1 C-1 0 -1 0 0 0 Z " fill="#89E4E5" transform="translate(113,161)"/>
<path d="M0 0 C-1.65 1.98 -3.3 3.96 -5 6 C-7.66666667 5.33333333 -10.33333333 4.66666667 -13 4 C-13 3.34 -13 2.68 -13 2 C-13.66 1.67 -14.32 1.34 -15 1 C-13.28415503 -0.71584497 -10.96799522 -0.40976422 -8.625 -0.625 C-7.15933594 -0.76808594 -7.15933594 -0.76808594 -5.6640625 -0.9140625 C-3 -1 -3 -1 0 0 Z " fill="#084684" transform="translate(249,312)"/>
<path d="M0 0 C0.66 1.32 1.32 2.64 2 4 C1.05125 4.598125 0.1025 5.19625 -0.875 5.8125 C-4.13964197 7.81562526 -4.13964197 7.81562526 -6 11 C-7.9453125 11.51171875 -7.9453125 11.51171875 -10.125 11.6875 C-12.043125 11.8421875 -12.043125 11.8421875 -14 12 C-9.73412126 7.45890328 -4.96387672 3.75264754 0 0 Z " fill="#5392DA" transform="translate(325,187)"/>
<path d="M0 0 C1.27230469 0.20496094 1.27230469 0.20496094 2.5703125 0.4140625 C6.32029785 0.92345357 8.9927697 0.81854519 12.6953125 0.0390625 C15.39517685 0.23735762 18.01535409 0.63025529 20.6953125 1.0390625 C20.6953125 1.3690625 20.6953125 1.6990625 20.6953125 2.0390625 C16.73929087 2.59861672 12.78033965 3.13366159 8.8203125 3.6640625 C7.12841797 3.90382813 7.12841797 3.90382813 5.40234375 4.1484375 C3.78779297 4.36113281 3.78779297 4.36113281 2.140625 4.578125 C0.64813232 4.78236084 0.64813232 4.78236084 -0.87451172 4.99072266 C-1.67646973 5.0066748 -2.47842773 5.02262695 -3.3046875 5.0390625 C-3.9646875 4.3790625 -4.6246875 3.7190625 -5.3046875 3.0390625 C-3.56773368 0.82529782 -2.88194919 0.0488466 0 0 Z " fill="#1C71D1" transform="translate(331.3046875,291.9609375)"/>
<path d="M0 0 C1.03145371 1.30915279 2.03542166 2.64082143 3 4 C2.67 4.66 2.34 5.32 2 6 C4.475 6.99 4.475 6.99 7 8 C7 8.66 7 9.32 7 10 C1.99344026 8.65677666 -2.19711129 6.53050549 -6 3 C-6.33 2.01 -6.66 1.02 -7 0 C-2.25 -1.125 -2.25 -1.125 0 0 Z " fill="#4691A8" transform="translate(153,323)"/>
<path d="M0 0 C-2.54782974 2.97246802 -5.45340883 4.41535288 -9 6 C-9.66 6 -10.32 6 -11 6 C-11.33 6.99 -11.66 7.98 -12 9 C-14.0625 9.6875 -14.0625 9.6875 -16 10 C-16 10.66 -16 11.32 -16 12 C-18.5 13.625 -18.5 13.625 -21 15 C-20.33333333 13.66666667 -19.66666667 12.33333333 -19 11 C-18.71125 10.278125 -18.4225 9.55625 -18.125 8.8125 C-17 7 -17 7 -14.9375 6.4375 C-14.298125 6.293125 -13.65875 6.14875 -13 6 C-12.67 5.01 -12.34 4.02 -12 3 C-9.78515625 1.796875 -9.78515625 1.796875 -7.0625 0.75 C-6.16660156 0.39421875 -5.27070313 0.0384375 -4.34765625 -0.328125 C-2 -1 -2 -1 0 0 Z " fill="#128CAD" transform="translate(188,299)"/>
<path d="M0 0 C0.33 0.66 0.66 1.32 1 2 C-2.48124321 6.70991728 -4.34838816 8.20175987 -10 10 C-10.36548445 11.32488113 -10.6937566 12.66018514 -11 14 C-12.87832399 15.86768193 -14.88971967 17.38361507 -17 19 C-15.67156322 13.92778685 -13.66526714 10.74856867 -10 7 C-8.02477154 5.95191959 -6.02518491 4.9479589 -4 4 C-1.68581709 1.93832739 -1.68581709 1.93832739 0 0 Z " fill="#1C8AD1" transform="translate(232,262)"/>
<path d="M0 0 C-0.33 1.32 -0.66 2.64 -1 4 C-1.73605469 4.06058594 -2.47210938 4.12117188 -3.23046875 4.18359375 C-4.20628906 4.26738281 -5.18210937 4.35117187 -6.1875 4.4375 C-7.15042969 4.51871094 -8.11335938 4.59992188 -9.10546875 4.68359375 C-11.78649602 4.97666151 -14.3662986 5.42703754 -17 6 C-17 5.34 -17 4.68 -17 4 C-15.68 4 -14.36 4 -13 4 C-13 3.01 -13 2.02 -13 1 C-8.62426048 0.40667939 -4.42471556 -0.13827236 0 0 Z " fill="#064280" transform="translate(365,292)"/>
<path d="M0 0 C1.33855056 0.78281305 2.67073644 1.57651877 4 2.375 C5.11375 3.03628906 5.11375 3.03628906 6.25 3.7109375 C6.8275 4.13632813 7.405 4.56171875 8 5 C8 5.66 8 6.32 8 7 C8.5775 7.2475 9.155 7.495 9.75 7.75 C12.3002997 9.16683317 14.01785701 10.87627537 16 13 C11.73350364 13 10.36683915 12.43160605 7 10 C7 9.34 7 8.68 7 8 C5.68 8 4.36 8 3 8 C0 2.25 0 2.25 0 0 Z " fill="#61D8D7" transform="translate(136,157)"/>
<path d="M0 0 C1.32 0 2.64 0 4 0 C4 0.99 4 1.98 4 3 C2.68 3 1.36 3 0 3 C0 3.99 0 4.98 0 6 C-0.99 6.495 -0.99 6.495 -2 7 C-2 7.66 -2 8.32 -2 9 C-2.99 9 -3.98 9 -5 9 C-5.33 9.99 -5.66 10.98 -6 12 C-6 11.01 -6 10.02 -6 9 C-6.99 8.67 -7.98 8.34 -9 8 C-6.63707344 5.47411298 -5.33537489 4.11179163 -2 3 C-1.34 2.01 -0.68 1.02 0 0 Z " fill="#186CB7" transform="translate(354,316)"/>
<path d="M0 0 C1.65 0 3.3 0 5 0 C-2.3220339 7.59322034 -2.3220339 7.59322034 -6.0625 8.5 C-8.82836891 9.21377262 -10.12335625 10.92228728 -12 13 C-12.66 12.67 -13.32 12.34 -14 12 C-8.35475578 6.19794344 -8.35475578 6.19794344 -5 4 C-4.34 4 -3.68 4 -3 4 C-3.33 3.01 -3.66 2.02 -4 1 C-3.01 1.33 -2.02 1.66 -1 2 C-0.67 1.34 -0.34 0.68 0 0 Z " fill="#1686BD" transform="translate(239,255)"/>
<path d="M0 0 C1.32 0.66 2.64 1.32 4 2 C2.10908264 2.84442881 0.21202485 3.67511587 -1.6875 4.5 C-3.27111328 5.19609375 -3.27111328 5.19609375 -4.88671875 5.90625 C-7.85627816 6.94950801 -9.89195063 7.23065301 -13 7 C-13 6.34 -13 5.68 -13 5 C-10 3 -10 3 -6 3 C-5.67 2.34 -5.34 1.68 -5 1 C-3.35 1.33 -1.7 1.66 0 2 C0 1.34 0 0.68 0 0 Z " fill="#3F7EBA" transform="translate(342,329)"/>
<path d="M0 0 C0.66 0 1.32 0 2 0 C2 0.66 2 1.32 2 2 C15.86 2.99 15.86 2.99 30 4 C30 4.33 30 4.66 30 5 C25.95839444 5.05831395 21.91689795 5.09370212 17.875 5.125 C16.73289063 5.14175781 15.59078125 5.15851563 14.4140625 5.17578125 C12.75117188 5.18544922 12.75117188 5.18544922 11.0546875 5.1953125 C10.03874512 5.20578613 9.02280273 5.21625977 7.97607422 5.22705078 C4.71711571 4.97841818 2.04884793 4.14878364 -1 3 C-0.67 2.01 -0.34 1.02 0 0 Z " fill="#257C9F" transform="translate(162,331)"/>
<path d="M0 0 C0.474375 0.639375 0.94875 1.27875 1.4375 1.9375 C2.83738726 3.88293306 2.83738726 3.88293306 4 5 C5.15066164 10.84280412 4.9563948 16.1553651 4 22 C2.15505678 18.75972157 1.46340406 15.79552055 0.875 12.125 C0.70742187 11.11695313 0.53984375 10.10890625 0.3671875 9.0703125 C0.00172005 6.01438252 -0.06424163 3.07442109 0 0 Z " fill="#70D3D9" transform="translate(128,277)"/>
<path d="M0 0 C0.66 0.33 1.32 0.66 2 1 C1.42085333 7.01326751 0.77662055 13.00892722 0 19 C-2 17 -2 17 -2.16015625 14.50390625 C-2.12792969 13.53324219 -2.09570312 12.56257812 -2.0625 11.5625 C-1.96145876 8.263284 -1.94796368 6.15610895 -3 3 C-2.01 2.01 -1.02 1.02 0 0 Z " fill="#4B87D0" transform="translate(379,216)"/>
<path d="M0 0 C2.42130331 3.63195496 2.21022785 5.38349348 2.125 9.6875 C2.10695313 10.86699219 2.08890625 12.04648438 2.0703125 13.26171875 C2.03550781 14.61716797 2.03550781 14.61716797 2 16 C2.66 16 3.32 16 4 16 C3.34 18.97 2.68 21.94 2 25 C1.67 25 1.34 25 1 25 C-0.6797917 16.39280284 -1.16036815 8.7027611 0 0 Z " fill="#60D4D7" transform="translate(116,189)"/>
<path d="M0 0 C0.66 0 1.32 0 2 0 C3.84087181 3.68174362 3.46968405 8.06824181 3.71875 12.12890625 C3.68299798 14.89459821 3.68299798 14.89459821 5 16 C4.82364548 18.69082872 4.38164079 21.32851446 4 24 C3.67 24 3.34 24 3 24 C2.49515526 20.75073335 1.99697406 17.50047901 1.5 14.25 C1.35691406 13.32960937 1.21382813 12.40921875 1.06640625 11.4609375 C0.93105469 10.57148438 0.79570313 9.68203125 0.65625 8.765625 C0.53056641 7.94868164 0.40488281 7.13173828 0.27539062 6.29003906 C0 4 0 4 0 0 Z " fill="#70D5D8" transform="translate(118,214)"/>
<path d="M0 0 C2.64 0 5.28 0 8 0 C7 2 7 2 4 4 C3.01 4.33 2.02 4.66 1 5 C1 5.33 1 5.66 1 6 C-1.97 6.66 -4.94 7.32 -8 8 C-3.375 3.125 -3.375 3.125 0 2 C0 1.34 0 0.68 0 0 Z " fill="#73A0DB" transform="translate(382,141)"/>
<path d="M0 0 C1.98 0 3.96 0 6 0 C6 0.66 6 1.32 6 2 C5.525625 2.45375 5.05125 2.9075 4.5625 3.375 C2.8250491 4.88218647 2.8250491 4.88218647 2.625 7.0625 C2.41875 7.701875 2.2125 8.34125 2 9 C0.35 9.66 -1.3 10.32 -3 11 C-2.01 7.37 -1.02 3.74 0 0 Z " fill="#7682E8" transform="translate(246,110)"/>
<path d="M0 0 C0.99 0.33 1.98 0.66 3 1 C1.125 6.75 1.125 6.75 0 9 C-0.99 9 -1.98 9 -3 9 C-3.33 10.32 -3.66 11.64 -4 13 C-4.66 13 -5.32 13 -6 13 C-5.34215037 9.70319035 -4.10579427 7.15882078 -2.4375 4.25 C-1.98246094 3.45078125 -1.52742187 2.6515625 -1.05859375 1.828125 C-0.53458984 0.92320312 -0.53458984 0.92320312 0 0 Z " fill="#858FD6" transform="translate(201,190)"/>
<path d="M0 0 C2.475 0.99 2.475 0.99 5 2 C5 2.66 5 3.32 5 4 C6.32 4.66 7.64 5.32 9 6 C7.75 7.5625 7.75 7.5625 6 9 C3.875 8.875 3.875 8.875 2 8 C1.67 7.01 1.34 6.02 1 5 C0.34 4.34 -0.32 3.68 -1 3 C-0.67 2.01 -0.34 1.02 0 0 Z " fill="#23C9D0" transform="translate(189,202)"/>
<path d="M0 0 C0.66 0.33 1.32 0.66 2 1 C1.67 1.99 1.34 2.98 1 4 C1.99 4.33 2.98 4.66 4 5 C3.34 5 2.68 5 2 5 C2 5.66 2 6.32 2 7 C-1.3 7.33 -4.6 7.66 -8 8 C-5.58443874 4.80800833 -3.31996462 2.25283313 0 0 Z " fill="#1886D6" transform="translate(174,310)"/>
<path d="M0 0 C0 0.66 0 1.32 0 2 C-8.91 2.99 -8.91 2.99 -18 4 C-18 3.01 -18 2.02 -18 1 C-11.93303301 0.22959149 -6.11485027 -0.09706112 0 0 Z " fill="#2070CA" transform="translate(314,297)"/>
<path d="M0 0 C1.32 0.33 2.64 0.66 4 1 C4.33 2.32 4.66 3.64 5 5 C0.25 6.125 0.25 6.125 -2 5 C-2 5.66 -2 6.32 -2 7 C-3.32 6.67 -4.64 6.34 -6 6 C-4.68 4.68 -3.36 3.36 -2 2 C-1.34 2.33 -0.68 2.66 0 3 C0 2.01 0 1.02 0 0 Z " fill="#2273BF" transform="translate(344,324)"/>
<path d="M0 0 C1.32 0 2.64 0 4 0 C4 1.32 4 2.64 4 4 C4.66 4 5.32 4 6 4 C6.6875 5.8125 6.6875 5.8125 7 8 C5.51953125 9.63671875 5.51953125 9.63671875 4 11 C3.32591692 9.73308493 2.66099503 8.46129251 2 7.1875 C1.62875 6.47980469 1.2575 5.77210938 0.875 5.04296875 C0 3 0 3 0 0 Z " fill="#40B9C4" transform="translate(134,305)"/>
<path d="M0 0 C0 0.99 0 1.98 0 3 C-2.01171875 4.9375 -2.01171875 4.9375 -4.6875 7 C-5.55761719 7.680625 -6.42773438 8.36125 -7.32421875 9.0625 C-9.82978933 10.87675256 -12.25197933 12.57683427 -15 14 C-15.66 13.67 -16.32 13.34 -17 13 C-14.73023018 11.20697179 -12.45923756 9.41553207 -10.1875 7.625 C-9.22360352 6.86316406 -9.22360352 6.86316406 -8.24023438 6.0859375 C-7.61826172 5.59609375 -6.99628906 5.10625 -6.35546875 4.6015625 C-5.49924927 3.92601318 -5.49924927 3.92601318 -4.62573242 3.23681641 C-3.12798345 2.09736659 -1.56584656 1.04389771 0 0 Z " fill="#387FE0" transform="translate(301,207)"/>
<path d="M0 0 C1.32 0.33 2.64 0.66 4 1 C2.51014431 4.79235994 0.41341953 6.80565887 -3 9 C-5.3125 8.75 -5.3125 8.75 -7 8 C-4.53846154 3.2 -4.53846154 3.2 -1.8125 2.1875 C-0.9153125 2.0946875 -0.9153125 2.0946875 0 2 C0 1.34 0 0.68 0 0 Z " fill="#4157C6" transform="translate(298,202)"/>
<path d="M0 0 C3.11373372 1.49920512 6.12228205 3.08152136 9 5 C9 5.66 9 6.32 9 7 C9.639375 7.28875 10.27875 7.5775 10.9375 7.875 C13 9 13 9 14 11 C12.35 10.67 10.7 10.34 9 10 C9 9.34 9 8.68 9 8 C8.01 8 7.02 8 6 8 C4.5 6.6875 4.5 6.6875 3 5 C2.1646875 4.2265625 2.1646875 4.2265625 1.3125 3.4375 C0 2 0 2 0 0 Z " fill="#68D7DC" transform="translate(163,179)"/>
<path d="M0 0 C0.66 0.33 1.32 0.66 2 1 C-1.3 4.63 -4.6 8.26 -8 12 C-9.32 11.34 -10.64 10.68 -12 10 C-10.82630859 9.04287109 -10.82630859 9.04287109 -9.62890625 8.06640625 C-8.61699219 7.24011719 -7.60507812 6.41382813 -6.5625 5.5625 C-5.55316406 4.73878906 -4.54382813 3.91507813 -3.50390625 3.06640625 C-1.70216039 1.58798996 -1.70216039 1.58798996 0 0 Z " fill="#72A6DF" transform="translate(343,172)"/>
<path d="M0 0 C0.33 0.99 0.66 1.98 1 3 C-0.47648938 4.33629746 -1.9562633 5.66896671 -3.4375 7 C-4.26121094 7.7425 -5.08492187 8.485 -5.93359375 9.25 C-8 11 -8 11 -9 11 C-9 9.02 -9 7.04 -9 5 C-7.68 5.33 -6.36 5.66 -5 6 C-4.9175 5.38125 -4.835 4.7625 -4.75 4.125 C-4 2 -4 2 -1.9375 0.75 C-1.298125 0.5025 -0.65875 0.255 0 0 Z " fill="#1188AD" transform="translate(220,269)"/>
<path d="M0 0 C1.98 0 3.96 0 6 0 C4.68 1.32 3.36 2.64 2 4 C2.66 4.66 3.32 5.32 4 6 C1.36 6.33 -1.28 6.66 -4 7 C-4.33 6.34 -4.66 5.68 -5 5 C-4.360625 4.731875 -3.72125 4.46375 -3.0625 4.1875 C-0.66868314 3.11332248 -0.66868314 3.11332248 0 0 Z " fill="#1790B5" transform="translate(160,314)"/>
<path d="M0 0 C0.66 0 1.32 0 2 0 C1.71758359 1.46015291 1.42373386 2.91809793 1.125 4.375 C0.96257812 5.18710937 0.80015625 5.99921875 0.6328125 6.8359375 C0 9 0 9 -2 11 C-2.99 9.02 -3.98 7.04 -5 5 C-4.01 4.67 -3.02 4.34 -2 4 C-0.79117904 1.99983534 -0.79117904 1.99983534 0 0 Z " fill="#4E88BA" transform="translate(366,299)"/>
<path d="M0 0 C2.25 -0.3125 2.25 -0.3125 5 0 C9 4.10810811 9 4.10810811 9 7 C9.639375 7.103125 10.27875 7.20625 10.9375 7.3125 C11.618125 7.539375 12.29875 7.76625 13 8 C13.33 8.99 13.66 9.98 14 11 C10.50004453 9.43810398 7.72827143 7.33666309 4.75 4.9375 C3.85796875 4.22464844 2.9659375 3.51179687 2.046875 2.77734375 C1.37140625 2.19082031 0.6959375 1.60429687 0 1 C0 0.67 0 0.34 0 0 Z " fill="#2F67BC" transform="translate(199,207)"/>
<path d="M0 0 C0.66 0.33 1.32 0.66 2 1 C-2.18596495 6.47101802 -5.06035434 9.86699663 -12 11 C-8.19588166 7.08060535 -4.18423892 3.50897269 0 0 Z " fill="#7CADDE" transform="translate(372,149)"/>
<path d="M0 0 C0.99 0 1.98 0 3 0 C3.33 1.65 3.66 3.3 4 5 C3.401875 5.268125 2.80375 5.53625 2.1875 5.8125 C-0.04327908 6.8893979 -0.04327908 6.8893979 -1.625 8.625 C-2.07875 9.07875 -2.5325 9.5325 -3 10 C-3.66 10 -4.32 10 -5 10 C-3.66786942 6.4134946 -2.23083941 3.12317517 0 0 Z " fill="#9099E7" transform="translate(234,131)"/>
<path d="M0 0 C0.66 0.33 1.32 0.66 2 1 C2.18451025 12.52164009 2.18451025 12.52164009 1 18 C-2 14.25 -2 14.25 -2 12 C-1.34 12 -0.68 12 0 12 C0 8.04 0 4.08 0 0 Z " fill="#558BCB" transform="translate(369,276)"/>
<path d="M0 0 C3.29967665 2.80472516 5.08459104 6.16918209 7 10 C6.67 10.99 6.34 11.98 6 13 C5.34 12.67 4.68 12.34 4 12 C4 10.68 4 9.36 4 8 C3.01 8.33 2.02 8.66 1 9 C0.63877119 7.68942607 0.28619689 6.37646376 -0.0625 5.0625 C-0.35833984 3.96615234 -0.35833984 3.96615234 -0.66015625 2.84765625 C-0.77230469 2.23792969 -0.88445312 1.62820312 -1 1 C-0.67 0.67 -0.34 0.34 0 0 Z " fill="#8089D8" transform="translate(297,189)"/>
<path d="M0 0 C3.04367695 3.80459619 4.52334445 5.69308797 6 10 C5.34 10 4.68 10 4 10 C3.67 10.99 3.34 11.98 3 13 C2.34 13 1.68 13 1 13 C0.67 8.71 0.34 4.42 0 0 Z " fill="#7B86DB" transform="translate(291,178)"/>
<path d="M0 0 C0.99 0.33 1.98 0.66 3 1 C3 1.66 3 2.32 3 3 C4.1446875 3.37125 4.1446875 3.37125 5.3125 3.75 C8.2364045 5.10995558 9.30004356 6.31585826 11 9 C10.01 9 9.02 9 8 9 C8 8.34 8 7.68 8 7 C7.401875 7.226875 6.80375 7.45375 6.1875 7.6875 C4 8 4 8 2.3125 6.875 C0.72744599 4.61063713 0.36712972 2.71675995 0 0 Z " fill="#68D9DB" transform="translate(152,170)"/>
<path d="M0 0 C0 0.66 0 1.32 0 2 C0.66 2.33 1.32 2.66 2 3 C1.67 3.66 1.34 4.32 1 5 C0.29875 4.9175 -0.4025 4.835 -1.125 4.75 C-4.92949327 5.0808255 -6.98077266 6.75313314 -10 9 C-5.65517241 0 -5.65517241 0 0 0 Z " fill="#357CD5" transform="translate(351,169)"/>
<path d="M0 0 C0.66 0.33 1.32 0.66 2 1 C1.67 1.66 1.34 2.32 1 3 C0.34 3 -0.32 3 -1 3 C-1.268125 3.639375 -1.53625 4.27875 -1.8125 4.9375 C-3 7 -3 7 -6 8 C-6.33 8.66 -6.66 9.32 -7 10 C-9.5625 10.625 -9.5625 10.625 -12 11 C-8.83525695 7.74483572 -5.67247209 4.67991207 -2 2 C-1.34 2 -0.68 2 0 2 C0 1.34 0 0.68 0 0 Z " fill="#75A6E0" transform="translate(358,160)"/>
<path d="M0 0 C0 0.33 0 0.66 0 1 C-6.3778552 2.17293889 -12.50321562 3.29530838 -19 3 C-17.67661368 2.31379969 -16.34050052 1.65213539 -15 1 C-14.29875 0.608125 -13.5975 0.21625 -12.875 -0.1875 C-8.51754035 -1.41895599 -4.43315864 -0.63699755 0 0 Z " fill="#2685CF" transform="translate(202,313)"/>
<path d="M0 0 C3.96 1.98 3.96 1.98 8 4 C8 4.66 8 5.32 8 6 C5.36 6.33 2.72 6.66 0 7 C-0.38133299 5.0085944 -0.71325582 3.00720923 -1 1 C-0.67 0.67 -0.34 0.34 0 0 Z " fill="#18A5BF" transform="translate(226,233)"/>
<path d="M0 0 C0.66 0.33 1.32 0.66 2 1 C0.02 2.98 -1.96 4.96 -4 7 C-6.475 6.01 -6.475 6.01 -9 5 C-9 4.01 -9 3.02 -9 2 C-6.94921875 1.77213542 -4.8984375 1.54427083 -2.84765625 1.31640625 C-0.98859771 1.18113386 -0.98859771 1.18113386 0 0 Z " fill="#2C4FB5" transform="translate(280,221)"/>
<path d="M0 0 C0.66 0.33 1.32 0.66 2 1 C2 1.99 2 2.98 2 4 C2.66 4 3.32 4 4 4 C7 9.75 7 9.75 7 12 C5.0625 11.25 5.0625 11.25 3 10 C2.6278958 8.67696283 2.29369827 7.34262065 2 6 C1.01 5.34 0.02 4.68 -1 4 C-0.67 2.68 -0.34 1.36 0 0 Z " fill="#8F97E4" transform="translate(269,139)"/>
<path d="M0 0 C1.32 0 2.64 0 4 0 C3.82701599 2.33528415 3.29774631 3.69177582 1.66796875 5.37890625 C-2.57211538 9 -2.57211538 9 -5 9 C-5 8.01 -5 7.02 -5 6 C-4.01 6 -3.02 6 -2 6 C-2.33 5.01 -2.66 4.02 -3 3 C-2.01 3 -1.02 3 0 3 C0 2.01 0 1.02 0 0 Z " fill="#5D92BE" transform="translate(354,319)"/>
<path d="M0 0 C0.33 0 0.66 0 1 0 C0.855625 1.134375 0.71125 2.26875 0.5625 3.4375 C-0.00301367 7.95353056 -0.50774809 12.47547181 -1 17 C-1.66 17 -2.32 17 -3 17 C-3.33 15.02 -3.66 13.04 -4 11 C-3.34 11 -2.68 11 -2 11 C-2 8.69 -2 6.38 -2 4 C-1.34 4 -0.68 4 0 4 C0 2.68 0 1.36 0 0 Z " fill="#76A4D8" transform="translate(391,145)"/>
<path d="M0 0 C0.66 0.33 1.32 0.66 2 1 C2 0.67 2 0.34 2 0 C3.65 0 5.3 0 7 0 C6.01 0.495 6.01 0.495 5 1 C5 1.66 5 2.32 5 3 C3.46875 4.2890625 3.46875 4.2890625 1.5 5.625 C0.8503125 6.07101562 0.200625 6.51703125 -0.46875 6.9765625 C-0.9740625 7.31429688 -1.479375 7.65203125 -2 8 C-2.33 7.34 -2.66 6.68 -3 6 C-2.06553465 3.96855359 -1.06775224 1.96466413 0 0 Z " fill="#1189AD" transform="translate(203,280)"/>
<path d="M0 0 C1.24386556 3.73159669 0.77811718 6.18015204 0 10 C-0.99 10.495 -0.99 10.495 -2 11 C-2 10.34 -2 9.68 -2 9 C-2.99 9.33 -3.98 9.66 -5 10 C-3.66511872 6.40608886 -2.03977277 3.24509304 0 0 Z " fill="#92A0E8" transform="translate(215,165)"/>
<path d="M0 0 C0.99 0.33 1.98 0.66 3 1 C3 4.63 3 8.26 3 12 C2.34 12 1.68 12 1 12 C0.67 8.04 0.34 4.08 0 0 Z " fill="#67D1D3" transform="translate(126,264)"/>
<path d="M0 0 C2.05859375 -0.36328125 2.05859375 -0.36328125 4.4375 -0.3125 C5.21996094 -0.30863281 6.00242187 -0.30476563 6.80859375 -0.30078125 C9 0 9 0 12 2 C7.23692563 2.95261487 2.8333472 3.08333357 -2 3 C-1.34 2.01 -0.68 1.02 0 0 Z " fill="#2772C9" transform="translate(354,290)"/>
<path d="M0 0 C3.125 0.375 3.125 0.375 6 1 C4.68 2.65 3.36 4.3 2 6 C0.68 5.67 -0.64 5.34 -2 5 C-2 2 -2 2 0 0 Z " fill="#1A439A" transform="translate(249,242)"/>
<path d="M0 0 C3 0 3 0 4.38671875 1.3125 C5.59114583 2.875 6.79557292 4.4375 8 6 C6.35 6.66 4.7 7.32 3 8 C0 2.25 0 2.25 0 0 Z " fill="#29CCD1" transform="translate(176,192)"/>
<path d="M0 0 C-0.66 1.32 -1.32 2.64 -2 4 C-4.66666667 3.33333333 -7.33333333 2.66666667 -10 2 C-10 1.34 -10 0.68 -10 0 C-6.42355152 -1.2380014 -3.66305234 -0.74926071 0 0 Z " fill="#0B508A" transform="translate(246,314)"/>
<path d="M0 0 C1.32 0 2.64 0 4 0 C3.67 1.98 3.34 3.96 3 6 C4.32 5.67 5.64 5.34 7 5 C6.1875 6.9375 6.1875 6.9375 5 9 C4.01 9.33 3.02 9.66 2 10 C1.34 6.7 0.68 3.4 0 0 Z " fill="#29CED1" transform="translate(113,175)"/>
<path d="M0 0 C0 1.65 0 3.3 0 5 C-0.99 5.33 -1.98 5.66 -3 6 C-3 5.34 -3 4.68 -3 4 C-3.99 4 -4.98 4 -6 4 C-6 2.68 -6 1.36 -6 0 C-2.25 -1.125 -2.25 -1.125 0 0 Z " fill="#6B7FEF" transform="translate(247,122)"/>
<path d="M0 0 C0.86625 0.556875 0.86625 0.556875 1.75 1.125 C1.42 2.115 1.09 3.105 0.75 4.125 C-1.625 4.3125 -1.625 4.3125 -4.25 4.125 C-4.91 3.135 -5.57 2.145 -6.25 1.125 C-2.80384615 -1.09038462 -2.80384615 -1.09038462 0 0 Z " fill="#0B648A" transform="translate(158.25,321.875)"/>
<path d="M0 0 C0.99 0.99 1.98 1.98 3 3 C1.79180633 6.624581 1.19658087 6.40170957 -2 8 C-2.33 8.99 -2.66 9.98 -3 11 C-3.66 11 -4.32 11 -5 11 C-3.55049545 7.2089881 -1.84827434 3.6125362 0 0 Z " fill="#9299E1" transform="translate(209,175)"/>
<path d="M0 0 C2.9719385 1.12451727 5.33440687 2.22293791 8 4 C8 3.34 8 2.68 8 2 C8.66 2.33 9.32 2.66 10 3 C10 4.65 10 6.3 10 8 C6.05205855 6.32971708 3.18203882 3.8204435 0 1 C0 0.67 0 0.34 0 0 Z " fill="#295DB6" transform="translate(219,223)"/>
<path d="M0 0 C0.66 0 1.32 0 2 0 C1.67 2.31 1.34 4.62 1 7 C0.01 6.67 -0.98 6.34 -2 6 C-4.14255793 6.38932856 -4.14255793 6.38932856 -6 7 C-4.71937515 5.2925002 -3.38232443 3.62626404 -2 2 C-1.34 2 -0.68 2 0 2 C0 1.34 0 0.68 0 0 Z " fill="#5291DD" transform="translate(309,199)"/>
<path d="M0 0 C1.70884005 1.62339805 3.37446717 3.29319053 5 5 C5 5.66 5 6.32 5 7 C2.03 6.01 -0.94 5.02 -4 4 C-2.68 3.34 -1.36 2.68 0 2 C0 1.34 0 0.68 0 0 Z " fill="#7D87DF" transform="translate(286,171)"/>
<path d="M0 0 C1.32 0.33 2.64 0.66 4 1 C4 1.99 4 2.98 4 4 C4.598125 4.2475 5.19625 4.495 5.8125 4.75 C8.28647521 6.16370012 9.43370255 7.65055383 11 10 C7.21388773 9.45912682 5.44599233 7.88277668 3 5 C3 4.34 3 3.68 3 3 C2.01 2.67 1.02 2.34 0 2 C0 1.34 0 0.68 0 0 Z " fill="#57C5DF" transform="translate(191,201)"/>
<path d="M0 0 C4.04420651 1.77945087 7.46078487 4.39529673 11 7 C9.1640625 7.60546875 9.1640625 7.60546875 7 8 C3.58658047 5.80565887 1.48985569 3.79235994 0 0 Z " fill="#83E0E0" transform="translate(177,190)"/>
<path d="M0 0 C0.5534764 2.07553648 1 3.84365964 1 6 C0.34 6 -0.32 6 -1 6 C-1.33 6.66 -1.66 7.32 -2 8 C-2 7.34 -2 6.68 -2 6 C-2.66 6 -3.32 6 -4 6 C-3.67 4.35 -3.34 2.7 -3 1 C-2.01 0.67 -1.02 0.34 0 0 Z " fill="#6B77DA" transform="translate(206,185)"/>
<path d="M0 0 C1.07694171 2.80004844 0.95876997 4.1911574 0.3125 7.1875 C-1 10 -1 10 -3.125 10.875 C-3.74375 10.91625 -4.3625 10.9575 -5 11 C-3.77472971 6.94718288 -2.30119506 3.55639236 0 0 Z " fill="#959EE5" transform="translate(245,111)"/>
<path d="M0 0 C0.99 0.33 1.98 0.66 3 1 C3 2.32 3 3.64 3 5 C1.02 5.99 1.02 5.99 -1 7 C-1.625 4.625 -1.625 4.625 -2 2 C-1.34 1.34 -0.68 0.68 0 0 Z " fill="#2EB1BE" transform="translate(141,312)"/>
<path d="M0 0 C1.35158203 0.15275391 1.35158203 0.15275391 2.73046875 0.30859375 C3.41753906 0.39238281 4.10460937 0.47617187 4.8125 0.5625 C4.8125 0.8925 4.8125 1.2225 4.8125 1.5625 C0.04942563 2.51511487 -4.3541528 2.64583357 -9.1875 2.5625 C-7.23786415 -1.3367717 -3.76002314 -0.43948322 0 0 Z " fill="#2670CA" transform="translate(347.1875,292.4375)"/>
<path d="M0 0 C4 4.625 4 4.625 4 8 C3.01 8.495 3.01 8.495 2 9 C0.4375 6.1875 0.4375 6.1875 -1 3 C-0.67 2.01 -0.34 1.02 0 0 Z " fill="#9099E4" transform="translate(283,164)"/>
<path d="M0 0 C1.2065625 0.0309375 1.2065625 0.0309375 2.4375 0.0625 C3.0975 1.7125 3.7575 3.3625 4.4375 5.0625 C2.125 5.3125 2.125 5.3125 -0.5625 5.0625 C-2.375 3.0625 -2.375 3.0625 -3.5625 1.0625 C-2.5625 0.0625 -2.5625 0.0625 0 0 Z " fill="#48D5D3" transform="translate(132.5625,154.9375)"/>
<path d="M0 0 C0.99 0 1.98 0 3 0 C3 0.66 3 1.32 3 2 C2.01 2 1.02 2 0 2 C-0.33 4.31 -0.66 6.62 -1 9 C-2.32 9.33 -3.64 9.66 -5 10 C-3.66786942 6.4134946 -2.23083941 3.12317517 0 0 Z " fill="#949CE2" transform="translate(228,142)"/>
<path d="M0 0 C0.33 0.99 0.66 1.98 1 3 C0.01 3.495 0.01 3.495 -1 4 C-0.67 5.32 -0.34 6.64 0 8 C-0.99 8.33 -1.98 8.66 -3 9 C-3.96516243 5.99727245 -4.22393475 3.95784231 -3 1 C-2.01 0.67 -1.02 0.34 0 0 Z " fill="#6778EB" transform="translate(231,143)"/>
<path d="M0 0 C2.55028983 1.27514492 2.93081711 2.40341297 4 5 C4 5.99 4 6.98 4 8 C4.66 8 5.32 8 6 8 C5.67 8.66 5.34 9.32 5 10 C3.0625 9.5 3.0625 9.5 1 8 C0.31209578 5.30341548 0.18053536 2.7982981 0 0 Z " fill="#A0A8EA" transform="translate(263,128)"/>
<path d="M0 0 C-0.33 0.99 -0.66 1.98 -1 3 C-3.64 3 -6.28 3 -9 3 C-7.14340032 -0.71319936 -3.69365381 -0.09982848 0 0 Z " fill="#055480" transform="translate(170,319)"/>
<path d="M0 0 C0.99 0.33 1.98 0.66 3 1 C3.33 3.64 3.66 6.28 4 9 C3.67 8.34 3.34 7.68 3 7 C2.01 7 1.02 7 0 7 C0 4.69 0 2.38 0 0 Z " fill="#3984DB" transform="translate(378,206)"/>
<path d="M0 0 C0.66 0 1.32 0 2 0 C1.67 3.63 1.34 7.26 1 11 C-1.43769218 7.34346173 -1.23944439 5.30999899 -1 1 C-0.67 0.67 -0.34 0.34 0 0 Z " fill="#5A8ECF" transform="translate(382,198)"/>
<path d="M0 0 C2.00720923 0.28674418 4.0085944 0.61866701 6 1 C6 1.99 6 2.98 6 4 C3.625 4.1875 3.625 4.1875 1 4 C0.34 3.01 -0.32 2.02 -1 1 C-0.67 0.67 -0.34 0.34 0 0 Z " fill="#0E508A" transform="translate(224,315)"/>
<path d="M0 0 C2.31 0 4.62 0 7 0 C4.12086007 2.87913993 0.81657802 3.72780733 -3 5 C-3 4.01 -3 3.02 -3 2 C-2.01 2 -1.02 2 0 2 C0 1.34 0 0.68 0 0 Z " fill="#094A86" transform="translate(256,310)"/>
<path d="M0 0 C0.33 0.66 0.66 1.32 1 2 C0.34 2 -0.32 2 -1 2 C-1.0825 2.61875 -1.165 3.2375 -1.25 3.875 C-2 6 -2 6 -4.0625 7.25 C-5.0215625 7.62125 -5.0215625 7.62125 -6 8 C-5.65120368 4.74456771 -4.97866739 3.98126893 -2.4375 1.75 C-1.633125 1.1725 -0.82875 0.595 0 0 Z " fill="#2B80DB" transform="translate(256,243)"/>
<path d="M0 0 C0.33 0.99 0.66 1.98 1 3 C1.66 3.33 2.32 3.66 3 4 C0.525 5.485 0.525 5.485 -2 7 C-2.33 5.02 -2.66 3.04 -3 1 C-2.01 0.67 -1.02 0.34 0 0 Z " fill="#314BB3" transform="translate(259,232)"/>
<path d="M0 0 C1.65 0 3.3 0 5 0 C4.67 1.32 4.34 2.64 4 4 C3.67 3.34 3.34 2.68 3 2 C2.34 2 1.68 2 1 2 C0.67 2.99 0.34 3.98 0 5 C-0.66 5 -1.32 5 -2 5 C-1.34 3.35 -0.68 1.7 0 0 Z " fill="#146DB7" transform="translate(258,330)"/>
<path d="M0 0 C1.32 0 2.64 0 4 0 C4.33 0.99 4.66 1.98 5 3 C4.34 3.66 3.68 4.32 3 5 C1.68 4.34 0.36 3.68 -1 3 C-0.67 2.01 -0.34 1.02 0 0 Z " fill="#0D739B" transform="translate(156,326)"/>
<path d="M0 0 C0.66 0 1.32 0 2 0 C2 0.66 2 1.32 2 2 C2.66 2 3.32 2 4 2 C4 2.66 4 3.32 4 4 C3.34 4 2.68 4 2 4 C1.67 4.66 1.34 5.32 1 6 C0.34 5.67 -0.32 5.34 -1 5 C-0.67 3.35 -0.34 1.7 0 0 Z " fill="#1BB5BF" transform="translate(139,304)"/>
<path d="M0 0 C2.4294516 3.6441774 2.16179575 5.71241272 2 10 C-0.77867692 7.22132308 -0.65193902 4.8286708 -1 1 C-0.67 0.67 -0.34 0.34 0 0 Z " fill="#48CBCE" transform="translate(123,238)"/>
<path d="M0 0 C3.81684226 1.55500981 6.19195732 4.03595495 9 7 C8.01 7.495 8.01 7.495 7 8 C6.67 7.34 6.34 6.68 6 6 C5.175 5.525625 4.35 5.05125 3.5 4.5625 C1 3 1 3 0 0 Z " fill="#3BBAE1" transform="translate(202,211)"/>
<path d="M0 0 C2.625 -0.1875 2.625 -0.1875 5 0 C5 1.32 5 2.64 5 4 C2.69 3.67 0.38 3.34 -2 3 C-1.34 2.01 -0.68 1.02 0 0 Z " fill="#2F7EDE" transform="translate(381,148)"/>
<path d="M0 0 C0.66 0 1.32 0 2 0 C2 0.66 2 1.32 2 2 C3.32 2 4.64 2 6 2 C6 2.66 6 3.32 6 4 C6.66 4.33 7.32 4.66 8 5 C3.545 4.01 3.545 4.01 -1 3 C-0.67 2.01 -0.34 1.02 0 0 Z " fill="#5D9FB5" transform="translate(162,331)"/>
<path d="M0 0 C1.32 0.66 2.64 1.32 4 2 C-1.75 5 -1.75 5 -4 5 C-4 4.01 -4 3.02 -4 2 C-2.68 2 -1.36 2 0 2 C0 1.34 0 0.68 0 0 Z " fill="#5E94C5" transform="translate(342,329)"/>
<path d="M0 0 C1.65 0 3.3 0 5 0 C4.34 1.32 3.68 2.64 3 4 C1.68 3.67 0.36 3.34 -1 3 C-0.67 2.01 -0.34 1.02 0 0 Z " fill="#1056A1" transform="translate(353,301)"/>
<path d="M0 0 C0.99 0.33 1.98 0.66 3 1 C2.67 3.31 2.34 5.62 2 8 C1.34 7.67 0.68 7.34 0 7 C0 4.69 0 2.38 0 0 Z " fill="#3C7BCA" transform="translate(373,248)"/>
<path d="M0 0 C1.32 0.33 2.64 0.66 4 1 C3.67 2.32 3.34 3.64 3 5 C2.01 5 1.02 5 0 5 C0 3.35 0 1.7 0 0 Z " fill="#0A84AA" transform="translate(240,249)"/>
<path d="M0 0 C0.66 0 1.32 0 2 0 C3.4783226 2.95664519 3.06032783 5.74229737 3 9 C0.23776722 6.23776722 0.42143709 3.79293383 0 0 Z " fill="#4ACBCD" transform="translate(118,214)"/>
<path d="M0 0 C0.33 0.66 0.66 1.32 1 2 C0.34 2 -0.32 2 -1 2 C-1.66 3.32 -2.32 4.64 -3 6 C-4.32 5.67 -5.64 5.34 -7 5 C-4.69 3.35 -2.38 1.7 0 0 Z " fill="#79ABDF" transform="translate(318,193)"/>
<path d="M0 0 C1.5625 1.8125 1.5625 1.8125 3 4 C2.67 4.99 2.34 5.98 2 7 C0.68 7 -0.64 7 -2 7 C-1.34 4.69 -0.68 2.38 0 0 Z " fill="#5F70E5" transform="translate(282,167)"/>
<path d="M0 0 C1.32 0.33 2.64 0.66 4 1 C4.33 2.65 4.66 4.3 5 6 C4.01 6 3.02 6 2 6 C1.34 4.02 0.68 2.04 0 0 Z " fill="#7785DD" transform="translate(278,159)"/>
<path d="M0 0 C0 1.65 0 3.3 0 5 C-1.32 5 -2.64 5 -4 5 C-3.625 3.0625 -3.625 3.0625 -3 1 C-1 0 -1 0 0 0 Z " fill="#6274E7" transform="translate(277,154)"/>
<path d="M0 0 C0.99 0.33 1.98 0.66 3 1 C3.6875 3.0625 3.6875 3.0625 4 5 C2.02 4.34 0.04 3.68 -2 3 C-1.34 2.01 -0.68 1.02 0 0 Z " fill="#8F97EB" transform="translate(259,123)"/>
<path d="M0 0 C1.98 0 3.96 0 6 0 C6 0.99 6 1.98 6 3 C4.35 3.33 2.7 3.66 1 4 C0.67 2.68 0.34 1.36 0 0 Z " fill="#073873" transform="translate(254,306)"/>
<path d="M0 0 C0.99 0 1.98 0 3 0 C2.67 1.65 2.34 3.3 2 5 C0.68 4.67 -0.64 4.34 -2 4 C-1.34 2.68 -0.68 1.36 0 0 Z " fill="#346CA6" transform="translate(366,294)"/>
<path d="M0 0 C1.65 0 3.3 0 5 0 C5.66 1.32 6.32 2.64 7 4 C4.625 3.6875 4.625 3.6875 2 3 C1.34 2.01 0.68 1.02 0 0 Z " fill="#3E64C1" transform="translate(199,207)"/>
<path d="M0 0 C0.99 0.33 1.98 0.66 3 1 C1.84826645 3.46800047 0.95216435 5.04783565 -1 7 C-1.625 5.1875 -1.625 5.1875 -2 3 C-1.34 2.01 -0.68 1.02 0 0 Z " fill="#7986DC" transform="translate(201,190)"/>
<path d="M0 0 C0.66 0 1.32 0 2 0 C2 0.66 2 1.32 2 2 C2.99 2 3.98 2 5 2 C5.33 2.99 5.66 3.98 6 5 C4.68 5.33 3.36 5.66 2 6 C1.34 4.02 0.68 2.04 0 0 Z " fill="#24CECE" transform="translate(167,185)"/>
</svg>
