<svg width="360" height="320" viewBox="0 0 360 320" fill="none" xmlns="http://www.w3.org/2000/svg">
  <defs>
    <linearGradient id="gradA" x1="16%" y1="10%" x2="92%" y2="94%" gradientUnits="userSpaceOnUse">
      <stop stop-color="#2DD4BF" />
      <stop offset="1" stop-color="#1E3A8A" />
    </linearGradient>
    <linearGradient id="gradB" x1="20%" y1="0%" x2="80%" y2="100%" gradientUnits="userSpaceOnUse">
      <stop stop-color="#60A5FA" />
      <stop offset="1" stop-color="#1D4ED8" />
    </linearGradient>
    <linearGradient id="gradC" x1="50%" y1="0%" x2="50%" y2="100%" gradientUnits="userSpaceOnUse">
      <stop stop-color="#38BDF8" />
      <stop offset="1" stop-color="#2563EB" />
    </linearGradient>
  </defs>
  <g filter="url(#shadow)">
    <path d="M42 94.5C41 85 51.5 78 59.6 83.1L156 146.5L78.3 256.2C73.3 263.1 62.4 259.6 61.4 250.8L42 94.5Z" fill="url(#gradA)"/>
    <path d="M320 94.5C321 85 310.5 78 302.4 83.1L206 146.5L283.7 256.2C288.7 263.1 299.6 259.6 300.6 250.8L320 94.5Z" fill="url(#gradB)"/>
    <path d="M171.3 50.7C176.2 42.3 187.8 42.3 192.7 50.7L244.8 141.4C250.1 150.6 243.4 162 232.6 162H131.4C120.6 162 113.9 150.6 119.2 141.4L171.3 50.7Z" fill="url(#gradC)"/>
    <path d="M52 190.7C50.8 181 61.8 174.6 70.2 180L156.6 234C170.9 243.1 188.4 243.1 202.7 234L289.1 180C297.5 174.6 308.5 181 307.3 190.7L301.3 242.6C299.8 255.3 290.1 265.5 277.4 267.8L187.8 284.4C181 285.7 174 285.7 167.2 284.4L77.6 267.8C64.9 265.5 55.2 255.3 53.7 242.6L52 190.7Z" fill="url(#gradB)"/>
  </g>
  <defs>
    <filter id="shadow" x="20" y="36" width="320" height="270" filterUnits="userSpaceOnUse" color-interpolation-filters="sRGB">
      <feDropShadow dx="0" dy="14" stdDeviation="20" flood-color="#0F172A" flood-opacity="0.18" />
    </filter>
  </defs>
</svg>
